<?xml version="1.0" encoding="utf-8"?>
<!-- Generator: Adobe Illustrator 18.1.0, SVG Export Plug-In . SVG Version: 6.00 Build 0)  -->
<svg version="1.1" id="Layer_1" xmlns="http://www.w3.org/2000/svg" xmlns:xlink="http://www.w3.org/1999/xlink" x="0px" y="0px"
	 viewBox="0 0 100 157" enable-background="new 0 0 100 157" xml:space="preserve">
<path fill-rule="evenodd" clip-rule="evenodd" fill="#9E9E9E" d="M18.5,126.1c-1.1,0.7-2.9,1.3-4.2,0.6c-0.2-0.1-0.3-0.3-0.2-0.6
	c0.9-0.7,2.2-1.1,3.3-0.7C17.8,125.6,18.2,125.8,18.5,126.1L18.5,126.1z M89.2,55c0.3,0.2,0.8,0.4,1,0.8c0,0.4-0.5,0.8-0.2,1.2
	c0.3,0.2,0.9,0.1,0.9,0.6c-0.4,0.1-0.6,0.3-0.8,0.6c0.1,0.6,0.9,0.6,0.6,1.3l-1.2,1c0,0.8,0.1,2-0.7,2.4c-0.1,0.7-0.1,1.2-0.6,1.3
	c-0.3-0.2-0.7-0.1-0.9,0.2c-0.1,0.2-0.4,0.2-0.6,0.2c-1.9,1.1-4,1.4-6.4,1.5c-0.4,0.4-0.3,1.1-0.6,1.5c-0.6,0.9-0.9,2.1-2.1,2.4
	l1.1-1.5c-0.5,0.2-1,1.1-1.5,0.5c-0.6,0.2-0.5,1.2-1.3,1.1l-0.9,0.4c-1.5-0.1-2.8-0.7-4.3-0.7c-0.1-0.2,0-0.6-0.3-0.6
	c-0.2,0.3-0.4-0.3-0.6,0c-0.3-0.3-0.4-0.1-0.6-0.2c0.1-0.3-0.3-0.2-0.2-0.6c-0.9,0.2-1,0.3-1.2,0.3c0-0.3-0.2-0.6,0.1-0.8
	c-0.6,0-0.4,0.3-0.6,0.2c-0.6-0.5-0.9,0.1-1.4,0c2.1-2.3,4.2-5,6.8-6.6c1.3-0.7,2.2-2.1,3.4-2.9c0.9-2.7,4.2-2.1,6.4-2.9
	c1.4-0.2,2.8-0.6,4.3-0.6c0.3-0.6,1.2-0.4,1.7-0.4C88.8,54.7,88.9,55.3,89.2,55L89.2,55z M12,88.7c0.3,0.3,0.2,0.9,0.1,1.3
	c-0.3,0.6-0.8,1.3-1.5,1.4c-0.4,0.1-0.8-0.2-1-0.6c-0.2-0.6-0.2-1.4,0.2-1.9c0.2-0.4,0.6-0.7,1-0.7C11.2,88.2,11.7,88.3,12,88.7
	L12,88.7z M31.9,1.8C35,5.7,36.2,10.2,37,15c0.3,3.7,0,7.6-0.9,11c-0.9,3.3-4.4,6.3-7.7,7.2c1.4,2.9,2.8,5.9,3,9.3
	c-0.1,1.6-1.1,2.9-2.5,3.5c-1.7,1-4,0.9-5.8,0.5c2.4,3.2,3.9,6.8,5.7,10.3c0.2,0.7,0.4,1.6,0.1,2.2c-0.3,0.4-0.8,0.4-1.2,0.4
	c0.8,1.4,1.5,3,1.8,4.7c-0.1,1.1-0.7,2-1.6,2.8c0.2,2,1.5,5.3-0.8,6.7c-1.5,1-3.4,1.3-4.5,2.8c0.3,2.2,1.5,4,2,6.1l1,4
	c0.1,0.4-0.3,0.8-0.6,0.9c-1.8,0.4-3-0.8-4.4-1.3c-0.2,0.9,0.7,1.6,1.1,2.4c1.5,1.9,3.4,3.5,4,5.8c0.2,0.5,0.3,1.2,0.1,1.7
	c-0.3,0.7-1.1,0.6-1.6,0.3l-2.2-1c-1-0.1-2-0.2-3-0.4c-0.2,0.6,0.3,1,0.7,1.4c2.2,2.4,2.9,5.6,3,8.9c-0.2,0.7-0.7,1.1-0.7,1.8
	c-0.8,0.6-1.9,0.6-2.9,0.7c0.6,1.3,1,2.7,1.2,4.2c-0.1,1-1,1.6-1.2,2.5c0.5,0.5,1.3,0.4,2,0.6c1.4,0.1,2.9-0.1,4.1,0.5l0.3,2.2
	c-2,0.6-4.5-1.1-6.2,0.8c-0.1,0.2-0.1,0.4,0.1,0.6c1.8,1.1,4.8,2.5,4.3,5.2c-0.6,1.2-1.8,2.2-2.8,3c0.9,3.5,1.2,7.2,2,10.7
	c1.3,0.5,1.3,2,1.6,3.1c0.1,1.1,0.1,2.2,0.6,3.1c0.7-2,0.7-4.5,1.8-6.4c2.7-2.2,5.2-4.8,7.8-7.1c0.7-0.7,1.7-1.2,2.1-2.1
	c0.3-0.4,0.7,0,1,0c-0.7-0.9-1.2-1.9-2.1-2.8c-0.6-1-1.3-2-1.7-3.1c-1.6-3.5-3-6.7-3.5-10.1c-0.3-1.8-0.6-3.6-0.6-5.5
	c0.2-0.8,1.1-0.7,1.6-1.2c-1.1-1.2,0.1-2.5,0.3-3.7c0-1.8,0.9-3.3,1.4-4.9c0.4-2.5,2-4.2,2.5-6.2c0.6-2.1,2.3-3.8,2.7-6
	c-0.4-2.2-1.1-4.3-1.2-6.7c-0.4-0.3-0.9-0.3-0.9-0.9c-0.1-1.2,0.4-2.2,0.4-3.3c0.2-2.4,0.7-4.7,0.7-7.2c-2.6-4.9-2.3-11-2.7-16.8
	c0.2-0.3,0.1-0.6-0.2-0.8c-0.7-0.6-1.7-1.3-1.9-2.2c0.1-0.7-0.9-1.1-0.3-1.7c-0.5-0.2-0.2-0.4-0.2-0.7c-0.2-0.1-0.4,0.1-0.6-0.2
	l0.4-0.7c0.1-0.7,0.4-1,0.6-1.6c0.6-0.4,1.2-0.8,1.3-1.4c-0.4-0.4-0.1-0.7,0.2-0.8c0.4-0.8,1.2-1.5,2-1.6c0.2,0.5-0.3,0.9-0.6,1.2
	c0.7,0.3-0.3,0.9,0.6,1.1l0.8-0.2c0.2-0.3,0.6-0.8,1-0.9c0.2-0.1,0.4,0.2,0.6,0.3c0.4-0.1,1-0.5,1.4-0.1c0.8,1.1,1.3,0.4,1.8,0.3
	c1.1,0.9,2.4,0,3.5-0.1c2.2-0.1,4-0.8,5.9-1.5c2-0.2,4.3-0.8,6.1,0.2c-0.1,0.3-0.8,0.6-0.7,1.1c0.1,0.6,0.7,0.6,0.8,1.1
	c0.9-0.4,0.9,0.9,1.8,0.4c0,0.4,0.4,0.6,0.6,0.9c0.8-0.3,1.5,0.1,2.2-0.2c0.5-0.2,1.2-0.2,1.7-0.3c1.2-0.3,2.4-0.8,3.8-0.8
	c0.6-0.2,1.3-0.7,1.9-0.2c0.5,0.1,0.9,0.2,1.3,0.4c0.2,0.8-0.2,1.5,0,2.4c0.1,0.4,0.4,1,0.1,1.4c-1.1,0.6-0.4,2-0.8,2.9l0.2,1.7
	c-0.4,0.6-1.1,0.8-1.3,1.4c-0.8,1.1-2,1.2-3,2.1c-0.7,0.5-1.2,1.4-2,1.6c-0.4,0.3,0.3,0.7-0.2,1c-0.9,0.4-1.7,1.2-1.8,2
	c-1.1,0.7-2.1,1.7-2.7,2.8c-1.5,1.4-2.3,3-3.2,4.7c2.5,1.5,5.2,2.8,8,3.9c0,0.6,0.8,0,0.8,0.4h0.8c0.6,0.2,1-0.2,1.6-0.1l2.1,0.2
	c2.4,0.9,5,1.8,7.8,1.9c0.7,0.3,1.4-0.1,2,0.2c3.2-1.4,6.1-3.6,10.1-3.1c0.5,0.1,1.1,0.2,1.6,0.3c1.2-0.2,1.8,0.6,2.4,1L93,71
	c0.4,0.3,1.1,0.3,1.7,0.3c-0.1,0.6,1.3,1,0.6,1.7c0.1,0.5,1.2,0,0.9,0.7c0.3,0.3,0.8-0.2,0.9,0.4c0.3,0,0.3,0.4,0.2,0.6
	c-0.2,0.3-0.4,0.6-0.7,0.7c0.8,0.2,0.6,1.1,1.4,1.2c0.1,0.2,0.1,0.6-0.2,0.6c0.1,0.2,0.3,0.2,0.6,0.2c-0.1,0.9-1.1,0.8-1.8,0.9
	c-1.1,0.4-2.2,0.7-3.1,1.4c-1,0-1.8,0.8-3,0.6c-0.4,0.4-0.9,0.6-1.1,1.2c-0.2,0.2-0.6,0.2-0.8,0.5c-0.9,0.1-1.7-0.2-2.4-0.3
	c-3.7,0.8-7.5,1.3-11.2,1.7c-0.4-0.2-0.8,0.1-1.1-0.3c-0.9,0.2-1.2,1.9-1.9,1.1C71.5,84,71.2,84.2,71,84c-0.4-0.3-0.7-0.8-1.2-0.7
	c-1.3,1-2.7,2.1-3.7,3.4c-0.9,1.6-0.8,3.4-1.3,5l-1,3.6c-0.6,0.7-0.8,1.5-1.2,2.2c-1.2,1.7-2.3,3.3-3,5.1l-2.4,4.2
	c0.3,0.9,1.1,1.6,1.3,2.5c2.7,3.5,4.5,6.7,7,9.5l2.1,2.7c1.2-0.3,0.9,1.2,1.4,1.7c0.4-0.1,0.1,0.6,0.4,0.7l1.7,2.3
	c-0.4,0-0.4,0.6-0.8,0.2c-0.2-0.1-0.4-0.2-0.6,0c-0.4,2.7,0.2,4.7,0.3,7c0.6,2.9-0.8,6.6,1.1,9c0.8,0.2,1.7,0.8,2.5,0.4
	c1.3,0.5,3.2,0,4.5,0.7c0.9,0.1,1.8,0.3,2.2,1.2c0.3,0.9,0,2,0,3c-0.2,0.6,0.2,1.6-0.5,1.9c-0.4,0.1-0.6-0.3-1-0.3l-1.6,0.1
	c-0.2,0.5-0.3,1-0.7,1.3c-0.5,0.1-0.8-0.3-1.2-0.3c-3.9-0.3-8.1-0.1-11.8-0.4l-1.7,0.1c-0.2-0.1-0.1-0.4-0.2-0.7
	c-0.4-0.4-1.2,0.1-1.4-0.6c0.1-0.4,0.2-0.9-0.3-0.9l-0.7-0.1v-0.7c-0.8,0.1-0.6-1.2-1.6-0.9c-0.5,0.1-1.2,0.2-1.5-0.2
	c-0.6-1.2-0.4-2.4-0.6-3.4c-0.8-1.8-0.3-4.2-0.7-6.3l-0.5-4.6c-0.8-0.3-0.9-1.5-1.8-1.6c-0.1,0.4-0.1,0.9,0.2,1.3
	c-0.4,0.3-0.3,0.9-0.4,1.4l-3.3,3.8l-5.3,4.7c-0.1,0.2,0.1,0.4,0.2,0.6c2.2,0.1,4.2,0.9,6.4,1.2c0.3,0.6,1.2,0.2,1.3,1
	c0.7,1.7,0.2,3.6-0.6,5.1c-0.7,0.1-1.3-0.4-2-0.1c-0.3,0.3-0.4,1.1-1,0.9c-0.3-0.1-0.7-0.1-0.7,0.3c-0.2,0.2,0.1,1-0.6,0.7
	c-0.1-0.3-0.1-0.7-0.4-0.9l-2.9-0.5c-1.6,0.2-2.7,0.1-4,0.2c-0.2,0.2,0,0.7-0.4,0.7l0.6,0.3c-0.5,0.3-1.2-0.1-1.7-0.4
	c-1.1-0.3-1.9-0.1-2.3,0.6c-0.5,0.2-0.4-0.7-0.9-0.9c-0.7-0.2-1.6-0.1-2.1,0.4c-0.4,0.3-0.5,0.9-1.1,0.7c-0.6,0.1-0.8-0.7-1.4-0.4
	c0-0.7-0.3-1.3-0.9-1.8c-0.8-0.3-1.8-0.2-2.2-1.2c-0.4,0.5-0.4-0.4-0.8-0.3c0-0.4-0.1-0.8-0.3-1.1c-0.7,0.3-0.9,1.4-1.7,1.3
	c-1.6-1.7-0.1-4.7-1.7-6.3c-0.9,0.3-1.6,1.3-2.2,2l-2,2.4c2.3,1.1,4.6,2,7,2.9c0.5,0.4,0.5,1.2,0.3,1.7c-0.2,0.3-0.4,0.6-0.7,0.6
	c-2.9-1-5.5-2.3-8.3-3.7c-0.7,0.5-1.1-0.4-1.5-0.7c-1.6-0.8-3-1.7-4.7-2.3c-0.3-0.5,0.6-0.4,0.7-0.8c0.9-0.7,1.8,0.3,2.7,0.4
	c-1.2-2.8-2.3-5.7-4.2-8.3c-0.4-0.4-0.8-0.9-1.3-1c-0.7,0.5-0.7,1.4-0.9,2.2c-0.2,5.8,1.2,11,3.4,15.9c0.3,0.4,0.3,1,0.9,1.1
	c0.8-0.3,1.6-0.5,2.4-0.4c0.2,0.1,0.2,0.4,0.1,0.6c-1.2,0.7-2.2,1.8-2.9,3c-0.4,0.1-0.8-0.1-0.9-0.4c-2.8-5.4-3.8-11.6-4.3-18
	c-0.1-2.2-0.3-4.8,1.7-5.9c1.4-0.1,2.4,1.2,3,2.3l4.3,7.9c0.4,0.4,0.8,1,1.3,1.2c0.7,0.1,1.2-0.5,1.7-1l3.9-4.4
	c-0.6-3.5-1.4-7-2.4-10.4c-1.8,0.9-4.7,1.5-6.5,0.1c-0.4-0.6-0.2-1.3-0.4-1.9c-0.1-0.4-0.3-1.1,0.2-1.4c1.7-1,4.2-2,6-0.6
	c0.4,0.3,0.8,0.6,1,0.9c0.8-0.4,1.7-1.1,2.3-1.9c0.1-0.5-0.2-0.9-0.6-1.2c-1.3-1.1-2.8-1.7-3.8-3c-0.1-0.6,0.2-1.1,0.7-1.5l0.8-0.5
	c-0.7-0.5-2.2,0.2-2.3-0.9c-0.5-1.9,2-2.6,1.9-4.4c-0.2-1.4-0.4-2.8-1.2-3.9c-4,0-6.8-2.8-10-4.7c-1.4-1.1-3.1-2.4-4-4
	c-0.4-0.8-0.4-2,0.2-2.8c1.1-0.8,2.7-0.5,3.8-0.1c3.9,1.8,8.4,4.7,10.4,9c1-0.1,2.2,0.2,3.2-0.2c0.7-1.5-0.1-3-0.5-4.3
	c-1.1-2.7-4-4.6-5.2-7.3c0.3-0.8-0.1-1.5,0.1-2.3c0.5-0.5,1.2-0.1,1.7,0c1.9,0.6,3.6,1.7,5.7,1.7c-0.5-1.9-2-3.2-3-4.6L18,84.6
	c-0.1-0.8,0.5-1.3,1-1.9c1-0.6,1.5,1,2.3,1.3c0.6,0.2,1.1,0.7,1.7,0.3c0.6-0.3,0.3-0.9,0.2-1.4c-0.9-2.8-2.6-5.3-2.9-8.3
	c0-0.6,0.1-1.4,0.8-1.3c1.9-0.9,4.2-1.2,5.8-2.7c0.3-1,0.2-2.3,0-3.3c-2.3-0.2-4.4-2.3-5.2-4.3c-0.7-1.6,0-3.3,0.7-4.6
	c0.3-0.2,0.6,0,0.9,0.1c0.1,1.7-0.9,3.8,0.7,4.9c0.8,0.6,1.7,0.8,2.7,0.8c0.3-0.1,0.7-0.4,0.8-0.7c0.2-1.4-0.4-2.5-1.4-3.5
	c-0.5-0.6-1.2-0.8-1.7-1.3c0.3-0.8-0.5-1.9,0.3-2.5c0.7,0.2,1.2,1.1,2,1c0.4-0.3,0.2-0.9,0.1-1.3c-1.4-3.7-3.4-7-6.1-10.1
	c-3.4-1.7-6.5-4.2-9.2-7.1c-1.1-0.8-0.4-2.2-0.5-3.3c0.7-0.3,1.5,0.1,2.3,0.2c3,1.6,5.1,4.8,7.5,7.3c2.2,1.5,5.7,1.9,8,0.7
	c0.5-0.3,1-0.7,1.2-1.2c0-3.5-1.8-6.3-3.7-9c-1.8-0.2-3.5-0.9-4.7-2.6c-1.3-2.1-0.3-4.9-0.3-7.3c0.1-2.1,1.5-3.7,3.2-5
	c1.1-0.5,1.8,0.8,2.7,1.3l1.4,0.8c1.8,2.5,1.9,6,1.7,9.3c3.1-0.8,4.9-4.3,5.3-7.3c0.5-4.9,0-9.7-1.4-14c-0.6-1.6-1.4-3-2.8-4.3
	c-0.4,0.4,0.1,1.8-0.9,1.4c-0.4-1.1-0.9-2-1.2-3.1C29.6,1.5,29.2,0.5,30,0C31,0.1,31.3,1.2,31.9,1.8L31.9,1.8z M27.8,24
	c0.5,1.7,0.4,3.5,0.7,5.2l-0.2,0.7l-1.8-0.2c-0.4-0.4-0.8-1.1-1.4-1.3c-0.4-0.1-0.6,0.4-0.7,0.7c-1-0.6-1.3-1.8-1.4-3
	c0.3-0.9-0.5-1.8,0.1-2.7c0.3-0.8,0.7-1.8,1.6-2.1C26.4,21.1,27.1,22.9,27.8,24L27.8,24z M12,100.5c1.8,1.2,3.7,3,4.9,4.9
	c-2.7-0.3-4.9-1.8-7.2-3.2c-1.3-0.9-2.7-1.9-3.6-3.3c-0.1-0.3,0.1-0.7,0.4-0.7C8.5,98.4,10.2,99.6,12,100.5L12,100.5z"/>
</svg>
