<?xml version="1.0" encoding="utf-8"?>
<!-- Generator: Adobe Illustrator 18.1.0, SVG Export Plug-In . SVG Version: 6.00 Build 0)  -->
<svg version="1.1" id="Layer_1" xmlns="http://www.w3.org/2000/svg" xmlns:xlink="http://www.w3.org/1999/xlink" x="0px" y="0px"
	 viewBox="0 0 573.1 39.1" enable-background="new 0 0 573.1 39.1" xml:space="preserve">
<g id="lkxVow_1_">
	<g>
		<path fill="#FFFFFF" d="M485.8,39.1c-0.4-1-1.5-1-2.2-1.6c-0.9-0.8-1.1-1-0.2-1.8c0.4-0.4,0.6-1,1-1.5c1-0.9,2.1-1,3,0
			c0.7,0.7,1.7,0.7,2.2,0c0.3-0.4,0.4-1.2,0.9-1.1c0.7,0.1,1.6,0.3,2,0.8c0.7,0.7,1.7,0.7,2.2,1.6c0.3,0.5,0.7-0.1,0.8-0.4
			c0.2-0.8,0.6-1.5,1.3-2c0.6-0.4,1-0.5,1.5,0.1c0.2,0.2,0.4,0.4,0.6,0.6c1.3,1.3,1.6,1.1,2.6-0.1c0.7-0.9,1.3-1.5,2.2-0.2
			c0.2,0.3,0.6,0.3,0.8,0c0.2-0.3,0-0.5-0.2-0.7c-0.4-0.3-0.6-0.7-0.5-1.1c0-0.4,0.1-0.7,0.6-0.8c0.4-0.1,0.9-0.1,1,0.3
			c0.3,1.3,1.6,1.8,2.5,2.2c1.3,0.6,2.5,1.4,4.2,1.4c1.5-0.1,2.6-0.8,3.8-1.4c0.8-0.4,1.7-0.9,2.3-1.8c0.4-0.5,0.7-1,0.5-1.5
			c-0.1-0.6-0.8-0.4-1.2-0.4c-1.1,0.1-1.8-0.8-2.4-1.4c-1.7-1.6-1.8-4.7-0.7-6.8c0.7-1.3,1.4-2.5,2.3-3.6c0.6-0.7,1.2-1.3,2.2-1.3
			c0.9,0,1.5,0.2,1.8,1.2c0.2,0.9,1.1,1.6,1.4,2.6c0.3,1,0.7,1.9,0.7,3c0,0.9,0.5,1.3,1.3,1.3c0.2,0,0.5,0,0.7,0
			c13.9,0,27.8,0,41.8,0c0.2,0,0.5,0,0.8,0c-0.3-1-1.2-1.4-1.8-2c-1.5-1.5-3.1-3.1-4.7-4.5c-0.6-0.5-1.1-0.7-1.7-0.2
			c-0.3,0.2-0.7,0.4-1,0.1c-1.1-1.3-2.5-2.3-3.2-3.8c-0.2-0.3-0.2-0.8-0.3-1.2c-0.1-2.2,1.5-4.5,3.5-5.3c0.8-0.3,1.4-1.1,2.4-1.2
			c-1.5,0.1-2.8,0.8-4,1.5c-0.5,0.3-0.9,0.7-1.4,0.3c-0.6-0.4-0.7-1.1-0.7-1.7c-0.1-0.6,0.4-0.8,0.8-1c1.2-0.7,2.5-1.2,3.8-1.7
			c1-0.4,2.1-0.9,3.1-1.4c1.6-0.8,3.5-1.1,4.8-2.5c0.9,0,1.8,0,2.6,0c0.3,1.4-0.2,2.2-1.6,2.8c-2.1,0.9-4.2,1.9-6.2,2.9
			c2.3-0.5,4.3-1.7,6.5-2.5c1.6-0.6,3.1-1.9,5-1.5c0,0.6,0,1.3,0,1.9c-0.7,0.4-1.3,0.8-1.2,1.8c0.1,0.4-0.1,0.8-0.5,1
			c-1.2,0.8-2.1,2-3.7,2.1c-0.2,0-0.5,0.1-0.6,0.3c-1,0.8-2.3,1-3.5,1.5c-1.2,0.5-2.2,1.6-4,1.2c1.4,1.6,3,2.3,4.2,3.4
			c2,1.9,4.2,3.7,5.9,5.9c0.9,1.2,2,2.4,3.4,3.1c0,1.8,0,3.5,0,5.3c-0.9,0.2-1.8,0.3-2.7,0.3c-15.4,0-30.8,0-46.3,0
			c-1,0-1.9,0.3-2,1.2c-0.2,1.4-0.8,2.4-1.5,3.5c-1.8,2.5-3.8,4.4-7.1,4.2c-0.6,0-1.1,0-1.7,0c-1.2,0-2.4,0.2-3.4-0.9
			c-0.3-0.3-0.9-0.4-1.3-0.8c-0.3-0.3-0.7-0.2-0.8,0.2c-0.2,0.7-0.8,1.3-0.8,2.1c-2.6,0-5.1,0-7.7,0c0-0.6-0.6-0.7-0.9-1
			c-0.7-0.9-1.6-0.8-2.5-0.7c-0.9,0.2-0.8,1-1,1.7C490.9,39.1,488.3,39.1,485.8,39.1z"/>
		<path fill="#FFFFFF" d="M330.7,39.1c-0.1-0.2-0.1-0.5-0.4-0.6c-1.9-0.4-2.5-2.3-3.7-3.4c-0.6-0.5-0.2-1.5,0.7-1.6
			c0.5-0.1,1-0.2,1.4,0.2c1.7,1.5,3.9,1.1,5.6,0.6c2.1-0.6,4.5-1.6,5.5-4.1c0.2-0.6,0.8-1,0.9-1.8c0.4-1.9-1-2.8-2.1-3.8
			c-1-1-1.3-2.4-0.5-3.6c0.2-0.3,0.4-0.6,0.6-1c0.4-1,1-1.2,1.8-0.4c1.4,1.3,2.4,3,3,4.8c0.3,1,0.5,2,0.7,3c0.3,1.5-0.1,3-0.8,4.3
			c-0.4,0.8-0.1,1.4,0.5,1.6c1.5,0.3,2.7,1.4,4.4,1.3c1.5-0.1,2.5-0.9,3.7-1.4c0.8-0.3,1.7-1,2.3-1.8c0.3-0.4,0.6-0.9,0.4-1.4
			c-0.2-0.6-0.7-0.5-1.1-0.4c-1.1,0.2-1.7-0.6-2.2-1.2c-0.8-0.9-1.6-1.9-1.7-3.3c-0.3-3.4,1.5-5.8,3.7-7.9c1.2-1.2,2.4-0.6,3.3,0.7
			c0.6,1,0.9,2.1,1.6,3c0.4,0.6,0.4,1.3,0.4,2c0.1,1.5,0.4,1.9,1.9,1.9c10,0,20,0,30,0c0.3,0,0.8,0.1,1-0.3c0.3-0.5-0.1-0.7-0.4-1
			c-0.5-0.6-0.6-1.5-1.2-2.2c-0.3-0.4,0.9-4.1,1.4-4.3c0.8-0.4,2.4,0.6,2.4,1.6c0,0.7,0.3,1.1,0.6,1.6c0.7,1.3,1.2,2.6,0.7,4.1
			c0,0.1-0.1,0.3-0.1,0.3c0.8,1.2,0.3,2.3,0,3.6c-0.3,1.1-0.7,1.4-1.7,1.4c-2.9,0-5.8,0-8.6,0c-8.2,0-16.4,0-24.6,0
			c-1.5,0-1.9,0.3-2,1.9c-0.1,1.4-1.2,2.3-1.9,3.4c-1,1.7-2.6,2.7-4.3,3.5c-0.6,0.3-1.3,0.1-1.9,0.1c-0.8,0-1.6-0.1-2.4,0
			c-2.2,0.2-3.8-0.9-5.2-2.3c-0.7-0.7-1.1-0.8-1.7,0c-0.8,1.2-2.1,1.6-3.3,2.2c-0.3,0.2-0.6,0.3-0.7,0.7
			C334.7,39.1,332.7,39.1,330.7,39.1z"/>
		<path fill="#FFFFFF" d="M0,23c0.2,0,0.5,0,0.7,0c1.1-0.1,1.6,0.4,1.4,1.5c-0.1,0.8,0.2,1.1,1,1.1c1.9,0,3.8,0,5.8,0
			c1.3,0,1.7-0.9,1-2c-0.1-0.2-0.3-0.5-0.3-0.8c-0.1-1.7-0.9-3.1-1.7-4.5c-0.5-0.8-0.5-1.8,0-2.5c0.4-0.6,0.7-1.1,0.8-1.8
			c0.2-0.9,0.7-1.1,1.6-0.7c0.8,0.4,1.1,1.2,1.3,1.9c0.4,1.2,0.4,2.4,0.9,3.5c0.8,1.6,0.6,3.3,0.8,5c0.1,0.7,0.3,0.9,1,0.9
			c0.3,0,0.6,0,1,0c15.2,0,30.5,0,45.7,0c0.4,0,0.7,0,1.1,0c0.6-0.1,0.8-0.5,0.4-0.9c-0.7-0.7-0.8-1.7-1.5-2.5
			c-0.4-0.4,0.8-4.1,1.4-4.4c0.8-0.4,2.4,0.7,2.4,1.7c0,0.5,0.1,0.8,0.4,1.2c0.9,1.3,1.4,2.8,0.9,4.4c0,0.1-0.1,0.4,0,0.5
			c1,1.3,0,2.6-0.1,3.8c-0.1,1-0.9,1-1.7,1c-3.2,0-6.3,0-9.5,0c-13.7,0-27.4,0-41.1,0c-0.6,0-1.2,0-1.7,0.5
			c-0.5,0.5-1.1,0.5-1.7,0.5c-1.9,0-3.8,0-5.7,0.6c-1.6,0.4-3-0.7-4.4-1.1C0,27.7,0,25.4,0,23z"/>
		<path fill="#FFFFFF" d="M298.6,39.1c-0.1-0.2-0.1-0.5-0.2-0.5c-1.8-0.4-2.4-2.3-3.6-3.3c-0.7-0.6-0.3-1.5,0.6-1.7
			c0.5-0.1,1.1-0.1,1.5,0.2c1.8,1.5,3.9,1,5.7,0.5c1.7-0.4,3.5-1.5,4.7-3c0.6-0.8,1.3-1.7,1.5-2.9c0.3-1.9-1.1-2.8-2.2-3.8
			c-1-0.9-1.2-2.1-0.5-3.3c0.3-0.4,0.6-0.8,0.7-1.2c0.4-1,1-1.2,1.8-0.4c1,1,1.8,2.1,2.4,3.4c0.8,1.8,1,3.5,1.3,5.4
			c0.1,0.9-0.1,1.5-0.4,2.3c-0.6,1.6-0.7,1.9,0.8,2.5c1.3,0.5,2.4,1.4,4,1.3c2.1-0.2,3.8-1.2,5.3-2.5c0.6-0.5,1-1.1,1.5-1.7
			c0.5-0.6,0.2-0.9-0.4-0.9c-2.2-0.1-3.3-1.5-4.4-3.3c-1-1.7-0.6-3-0.1-4.7c0.7-2.2,2.3-3.3,3.8-4.7c0.6-0.5,1.3-0.4,2,0
			c1.4,0.8,1.7,2.4,2.5,3.6c0.4,0.6,0.3,1.3,0.3,2.1c-0.1,1.9-0.3,3.9,0.2,5.8c0.4,1.7-0.9,3-1.2,4.5c-0.4,1.7-1.8,2.9-2.9,4
			c-0.8,0.8-1.9,1.6-3.3,1.5c-1.1,0-2.3-0.1-3.4,0c-2.4,0.3-4.1-0.9-5.6-2.5c-0.7-0.7-1.3-0.8-1.8-0.1c-1.1,1.4-2.5,2-4,2.7
			c-0.2,0.1-0.3,0.4-0.4,0.6C302.6,39.1,300.6,39.1,298.6,39.1z"/>
		<path fill="#FFFFFF" d="M56.6,39.1c-0.4-0.8-0.9-1.4-1.8-1.7c-1.1-0.3-1.3-0.9-0.8-1.9c0.5-0.8,0.6-1.9,1.5-2.5
			c0.6-0.4,1.1-0.6,1.6,0.1c0.2,0.2,0.4,0.4,0.6,0.6c1.3,1.1,1.5,1.1,2.6-0.2c0.7-0.9,1.2-1.3,2.3-0.3c0.5,0.5,1.3,0.8,2,1.2
			c1,0.5,1,1.1,0.8,1.9c-0.2,1-1.1,1.7-1.1,2.7C61.8,39.1,59.2,39.1,56.6,39.1z"/>
		<path fill="#FFFFFF" d="M79.7,39.1c-0.4-1-1.5-1-2.2-1.6c-0.9-0.8-1.1-1-0.3-1.8c0.2-0.2,0.4-0.5,0.5-0.8c1-1.7,2.2-1.8,3.7-0.5
			c0.7,0.6,1.7,0.6,2-0.1c0.6-1.5,1.5-1.3,2.5-0.6c1,0.7,2.5,0.9,3,2.3c0.2,0.6,0.2,1.1-0.3,1.3c-0.9,0.4-0.9,1.1-1.1,1.8
			C84.8,39.1,82.2,39.1,79.7,39.1z"/>
		<path fill="#FFFFFF" d="M449.8,39.1c-0.4-0.8-1.1-1.4-1.9-1.6c-1.2-0.4-1.7-1.8-0.9-2.8c0.3-0.3,0.5-0.6,0.7-1.1
			c0.3-1,1-1.4,1.9-0.9c1.4,0.8,2.9,1.5,3.6,3.1c0.3,0.6,0.3,1.2-0.4,1.4c-1,0.3-1.1,1-1.1,1.9C451,39.1,450.4,39.1,449.8,39.1z"/>
		<path fill="#FFFFFF" d="M200.1,24.6c3,0,6,0,9,0c2,0,3-0.9,3.5-2.8c0.4-1.5,1.2-2.9,2.4-4c0.6-0.6,3.4-0.4,4,0.1
			c1.2,1.1,2,2.6,2.7,4.1c0.7,1.5,1.1,2.9,1.3,4.5c0.2,1.5-0.7,2.2-1.6,2.8c-0.8,0.5-1.8,0.8-2.8,0.4c-0.7-0.3-1.5-0.2-2.3-0.2
			c-0.7,0-1.4-0.1-2-0.6c-0.6-0.6-1.5-0.6-2.1,0c-0.7,0.6-1.4,0.7-2.2,0.7c-7.1,0-14.2,0-21.2,0c-1.3,0-2.6-0.1-3.8,0.4
			c-0.6,0.2-1.2,0-1.8-0.2c-0.9-0.3-1.9,0.1-2.7-0.3c-1.6-0.6-2.9-0.4-4.5-0.1c-2.3,0.5-4.7,0.3-7,0c-1.3-0.1-2.4-0.1-3.7,0
			c-3.4,0.2-6.9,0-10.3,0.1c-1,0-1.7-0.7-2-1.3c-0.6-0.9-1.4-1.9-1.4-3.2c0-6.2,0-12.5,0-18.7c0-0.7,0.1-1.3,0.7-1.8
			c0.5-0.5,1.1-1,1.4-1.8c0.2-0.6,0.8-0.8,1.3-1c0.8-0.3,1.4,0.3,1.1,1.1c-0.4,0.8-0.3,1.6-0.3,2.5c0,5.8,0,11.7,0,17.5
			c0,1.5,0.2,1.7,1.6,1.7c2.4,0,4.8,0,7.2,0c0.9,0,1.2-0.2,1.1-1.2c-0.2-1.2,1.4-4.2,2.5-4.6c0.8-0.3,1.2,0.1,1.3,0.9
			c0.2,1.3,0.1,2.6-0.1,3.8c-0.1,0.8,0.1,1.1,0.9,1.1c2.1,0,4.2,0,6.2,0c0.8,0,1.2-0.3,1-1.1c-0.5-2.3,1.1-3.4,2.6-4.6
			c0.3-0.2,0.6-0.2,0.9,0c0.3,0.2,0.5,0.7,0.3,1c-0.8,0.9-0.4,1.9-0.2,2.8c0,0.2,0.1,0.4,0,0.6c-0.6,1.4,0.3,1.3,1.2,1.3
			c0.2,0,0.5,0,0.7,0c2,0,2,0,1.6-1.9c-0.4-1.7,0.8-3.7,2.5-4c0.6-0.1,1.1,0,1.3,0.8c0.2,1,0.3,2.1,0.7,3c0.1,0.2,0,0.5,0,0.7
			c-0.3,1.3-0.3,1.4,1.1,1.4C193.6,24.6,196.8,24.6,200.1,24.6C200.1,24.6,200.1,24.6,200.1,24.6z M214.8,23.5
			c0.9,0.8,1.8,1.3,3,1.2c0.5,0,1.1,0.8,1.5,0.3c0.5-0.6-0.5-0.8-0.6-1.3c-0.2-1.3-1.2-1.3-2.2-1.2C215.8,22.5,215.3,23,214.8,23.5z
			"/>
		<path fill="#FFFFFF" d="M278.7,24.6c-2.6-2.5-4.9-4.6-7.2-6.8c-0.4-0.4-1-0.3-1.4,0c-0.5,0.4-0.9,0.4-1.2-0.1
			c-0.8-1.1-2-1.8-2.7-3c-0.6-1.2-0.8-2.6-0.1-3.7c0.2-0.3,0.4-0.6,0.5-1c0.2-1.4,1.4-1.8,2.3-2.4c1-0.7,2.4-0.7,3.3-1.7
			c0.1-0.1,0.3-0.2,0.5-0.3c1.6-0.4,3-1.3,4.5-1.8c1.2-0.4,2.2-1.5,3.6-1.3c0.3,0,0.6-0.2,0.8-0.5c0.6-0.7,1.4-0.6,2.1-0.3
			c0.6,0.2,0.8,0.7,0.4,1.3c-0.6,0.8-1.3,1.6-1.2,2.7c0,0.2-0.3,0.6-0.6,0.7c-1.1,0.8-2.2,1.6-3.6,2.1c-1.2,0.4-2.5,0.8-3.6,1.5
			c-0.9,0.6-2.2,1-3.3,1.4c-0.3,0.1-0.6-0.1-0.7,0.3c-0.1,0.3,0.3,0.5,0.4,0.7c0.6,0.8,1.6,1.2,2.3,1.8c2.9,2.2,5.3,4.8,7.7,7.4
			c0.2,0.3,0.5,0.6,0.7,0.8c1,0.8,1.6,1.8,1.7,3.1c0,0.7,0,1.4,0.3,2.1c0.4,1-0.1,1.5-1,1.7c-0.4,0.1-0.8,0.1-1.2,0.1
			c-8.6,0-17.2,0-25.8,0c-1.3,0-2.1-0.2-2.7-1.6c-0.4-0.9-0.9-1.7-0.8-2.7c0-0.2,0-0.5-0.3-0.6c-0.3-0.1-0.4,0.1-0.6,0.3
			c-1.1,0.9-2,0.7-3.2,0c-1.2-0.7-2.4-1.4-3.3-2.6c-0.4-0.5-0.6-1-0.4-1.5c0.6-1.5,1-3.1,2.4-4.2c0.6-0.4,1.1-0.9,1.5-1.5
			c0.4-0.5,0.8-0.5,1.4-0.6c1.4-0.1,2.1-0.7,2.2-2.1c0.1-1.3,1-1.9,1.8-2.7c0.2-0.2,0.5-0.2,0.8,0c0.4,0.2,0.4,0.6,0.3,1
			c-0.7,3.2-0.4,6.4-0.5,9.6c-0.1,1.3,0.5,2.4,0.7,3.6c0.1,0.7,0.7,0.6,1.3,0.6c2.7,0,5.4,0,8,0c4.1,0,8.2,0,12.4,0
			C277.5,24.6,277.9,24.6,278.7,24.6z M249.5,19.6c0.8,0,1.3,0.3,1.8,0.8c0.3,0.3,0.9,0.3,1-0.1c0.2-0.7,0.2-1.6,0.3-2.3
			c0-0.2-0.3-0.4-0.4-0.2C251.5,18.6,250.2,18.4,249.5,19.6z"/>
		<path fill="#FFFFFF" d="M95,29.5c-6.8,0-13.6,0-20.4,0c-1.5,0-2.4-0.9-3.2-2.1c-1.1-1.7-0.9-3.4-0.9-5.2c0-5.1,0-10.2,0-15.4
			c0-0.9,0.1-1.8,0.9-2.5c0.5-0.4,1-0.9,1.2-1.6c0.3-0.6,0.9-0.8,1.4-1c0.3-0.1,0.6,0,0.9,0.3c0.2,0.3,0.3,0.6,0.1,0.9
			c-0.4,0.6-0.4,1.2-0.4,1.8c0,6,0,12.1,0,18.1c0,1.4,0.2,1.7,1.6,1.7c2.8,0,5.5,0,8.3,0c0.4,0,0.8,0.1,1-0.3
			c0.2-0.4-0.2-0.6-0.4-0.9c-0.5-0.8-1-1.6-1.4-2.5c-0.2-0.4-0.1-0.8,0.2-1.1c0.6-0.4,0.6-1,0.7-1.6c0.1-0.6,0-1.3,0.8-1.4
			c0.8-0.1,1.6,0.4,1.9,1.1c0.5,1.2,1,2.3,1.8,3.3c0.3,0.4,0,0.8-0.1,1.3c-0.5,1.8-0.3,2.1,1.5,2.1c7.6,0,15.3,0,22.9,0
			c0.4,0,0.9,0.1,1.1-0.3c0.2-0.5-0.3-0.7-0.5-1c-0.5-0.8-0.7-1.7-1.3-2.4c-0.2-0.2,1.3-3.9,1.5-4c0.6-0.3,2.3,0.5,2.4,1.3
			c0,1,0.7,1.8,1,2.6c0.2,0.5,0.5,1,0.4,1.6c0,1.2-0.1,2.4,0.2,3.6c0.3,1-0.4,1.9-0.7,2.8c-0.2,0.7-1.1,0.6-1.7,0.6
			c-3,0-6.1,0-9.1,0C102.9,29.6,99,29.6,95,29.5C95,29.6,95,29.5,95,29.5z"/>
		<path fill="#FFFFFF" d="M435.3,29.5c-6.1,0-12.2,0-18.2,0c-1.2,0-2-0.2-2.6-1.6c-0.4-0.9-0.9-1.8-0.8-2.8c0-0.7-0.4-0.7-0.9-0.3
			c-1.2,0.9-2,0.8-3.3,0c-1.3-0.7-2.4-1.5-3.3-2.6c-0.4-0.5-0.5-1-0.3-1.6c0.6-2.1,1.8-3.8,3.5-5.2c0.7-0.6,1.4-0.9,2.3-1
			c0.9-0.1,1.7-0.7,1.7-1.8c0-1.4,0.9-2.1,1.9-2.9c0.6-0.4,1.2,0.1,1.1,1c-0.7,3.3-0.4,6.6-0.5,9.9c0,1.2,0.6,2.2,0.7,3.4
			c0.1,0.7,0.8,0.5,1.3,0.5c4.2,0,8.5,0,12.7,0c6.9,0,13.8,0,20.6,0c0.4,0,1,0.2,1.2-0.3c0.3-0.5-0.2-0.8-0.4-1.1
			c-0.4-0.7-0.7-1.5-1.2-2.2c-0.3-0.4,1.1-3.9,1.5-4.1c0.8-0.4,2.5,0.6,2.4,1.6c0,0.6,0.3,1,0.5,1.5c0.7,1.3,1.1,2.6,0.7,4.1
			c0,0.2-0.1,0.4,0,0.5c1,1.3,0.1,2.6-0.1,3.8c-0.1,1-0.9,1-1.6,1c-3,0-6.1,0-9.1,0C441.9,29.6,438.6,29.6,435.3,29.5
			C435.3,29.6,435.3,29.5,435.3,29.5z M410.6,19.5c0.7,0.1,1.3,0.3,1.8,0.9c0.2,0.3,0.7,0.3,0.8,0c0.5-0.8,0.3-1.7,0.4-2.5
			c0-0.1-0.3-0.3-0.4-0.2C412.6,18.6,411.2,18.4,410.6,19.5z"/>
		<path fill="#FFFFFF" d="M494.3,29.5c-3.6,0-7.2,0-10.8,0c-0.6,0-1.2,0-1.6,0.6c-0.4,0.5-1,0.4-1.6,0.4c-2,0-3.9,0.1-5.8,0.6
			c-1.7,0.4-3.5-0.3-4.4-1.7c-0.9-1.4-0.5-3.1-0.2-4.6c0.1-0.3,0.3-0.5,0.3-0.9c0-0.7,0.5-0.8,1.1-0.8c0.6,0,1,0.5,0.9,1
			c-0.3,1.6,0.6,1.6,1.7,1.6c1.6,0,3.2,0,4.8,0c1.4,0,1.9-0.9,1.2-2.1c-0.2-0.4-0.2-0.8-0.3-1.3c-0.3-1.4-0.9-2.7-1.7-3.9
			c-0.6-0.9-0.6-1.8,0-2.6c0.4-0.6,0.6-1.2,0.8-1.8c0.3-1,1-1.2,1.8-0.6c0.6,0.5,1,1.2,1.1,1.9c0.3,1.7,1,3.3,1.4,4.9
			c0.3,1,0.2,2.2,0.3,3.4c0.1,0.7,0.4,1,1.1,1c2.1,0,4.2,0,6.4,0c0.3,0,0.7,0,0.8-0.4c0.1-0.3-0.1-0.5-0.3-0.7
			c-0.7-0.7-0.8-1.8-1.5-2.5c-0.3-0.3-0.1-0.9,0.2-1.2c0.5-0.4,0.6-0.9,0.7-1.5c0.1-0.6,0-1.4,0.9-1.5c0.8,0,1.6,0.4,1.9,1.2
			c0.4,1.1,0.9,2.2,1.7,3.1c0.4,0.4,0,0.9-0.1,1.4c-0.5,1.7-0.3,2.1,1.5,2.1c2,0,4,0,6,0c0.3,0,0.8,0.1,1-0.3
			c0.2-0.4-0.2-0.6-0.4-0.9c-0.6-0.7-0.8-1.7-1.4-2.5c-0.2-0.2,1.3-4,1.5-4.1c0.6-0.3,2.4,0.5,2.4,1.3c0,1,0.6,1.7,1,2.5
			c0.5,1.1,0.9,2.2,0.4,3.5c-0.1,0.2-0.1,0.4,0,0.6c0.9,1.3,0,2.5-0.2,3.8c-0.1,0.9-0.9,1-1.7,1C501.5,29.5,497.9,29.5,494.3,29.5
			C494.3,29.5,494.3,29.5,494.3,29.5z"/>
		<path fill="#FFFFFF" d="M141.5,16.7c0-3.4,0-6.9,0-10.3c0-1.2-0.1-2.4,1.2-3.1c0.5-0.3,0.7-0.8,1.1-1.2c0.6-0.6,1.3-0.4,1.6,0.4
			c0.1,0.5,0.3,1,0.2,1.5c-0.1,1.1,0.5,2,1.3,2.7c0.4,0.4,0.6,0.9,0.4,1.4c-0.4,0.9-0.4,1.9-1.1,2.6c-0.3,0.3-0.3,0.8-0.3,1.3
			c0.3,5.7,0.2,11.5,0.1,17.2c0,1.6-0.8,2.5-1.6,3.5c-1.4,1.6-3.1,2.7-4.9,3.7c-0.3,0.2-0.7,0.2-1,0.2c-2.1,0-4.2,0-6.2,0
			c-1.6,0-2.5-1.3-3.4-2.3c-2-2.2-2.7-5-2-7.7c0.4-1.7,0.2-3.7,1.9-5c0.4-0.3,0.6-0.7,1.1-0.5c0.6,0.3,0.5,0.8,0.4,1.3
			c-0.4,1.5-0.4,2.9,0,4.4c0.2,0.8-0.3,1.7,0.2,2.7c0.7,1.3,1.8,1.6,2.9,2.3c0.2,0.1,0.5,0,0.6,0.1c2.6,2.3,4.4-0.4,6.4-1.3
			c0.8-0.3,1.4-1.4,1.4-2.6C141.5,24.1,141.6,20.4,141.5,16.7C141.6,16.7,141.6,16.7,141.5,16.7z"/>
		<path fill="#FFFFFF" d="M232.1,13.8c-0.1,3.1,0.1,6.8-0.1,10.4c0,1.2,0.1,2.1-1.2,2.5c-0.3,0.1-0.3,0.6-0.4,1
			c-0.1,0.7-0.6,1.1-1.1,1.5c-0.4,0.2-0.9,0.3-1.3-0.1c-0.4-0.4-0.3-0.8,0-1.2c0.4-0.4,0.3-0.9,0.3-1.3c0-6.9-0.1-13.8,0-20.6
			c0-1.6,1-2.9,2.5-3.6c1-0.5,1.4-0.2,1.4,0.9C232.1,6.6,232.1,9.9,232.1,13.8z"/>
		<path fill="#FFFFFF" d="M389.4,7.4c0.6,0.1,1.4,0.1,1.9,0.8c0.2,0.3,0.5,0.3,0.8,0.4c1.4,0.3,2,1.7,1,2.9
			c-0.2,0.3-0.5,0.5-0.7,0.8c-0.9,1.4-1.5,1.4-2.9,0.5c-0.7-0.5-1.6-0.8-2.3-1.3c-0.3-0.2-0.5-0.3-0.6-0.7
			C386.4,9.8,388.2,7.4,389.4,7.4z"/>
		<path fill="#FFFFFF" d="M302.9,8.6c1.5,0,4.2,2.3,4.4,3.7c0.1,0.5-2.2,3.1-2.6,2.9c-0.7-0.3-1.3-0.8-1.9-1.2
			c-0.2-0.2-0.4-0.4-0.8-0.5c-1.5-0.4-1.9-1.8-0.9-2.9c0.3-0.3,0.5-0.6,0.5-1C301.7,8.8,302.2,8.6,302.9,8.6z"/>
		<path fill="#FFFFFF" d="M116.5,10.7c-0.4,0.8-1,1.9-2,2.6c-0.3,0.3-0.9,0.3-1.3,0c-1-0.8-2.2-1.2-3.2-2c-0.6-0.5-0.5-1-0.1-1.6
			c0.2-0.3,0.5-0.5,0.6-0.9c0.6-1.6,2.3-2.1,3.6-0.9c0.3,0.3,0.6,0.5,1,0.6C116.3,8.7,116.5,9.4,116.5,10.7z"/>
	</g>
</g>
</svg>
