<?xml version="1.0" encoding="utf-8"?>
<!-- Generator: Adobe Illustrator 18.1.0, SVG Export Plug-In . SVG Version: 6.00 Build 0)  -->
<svg version="1.1" id="Layer_1" xmlns="http://www.w3.org/2000/svg" xmlns:xlink="http://www.w3.org/1999/xlink" x="0px" y="0px"
	 viewBox="0 0 398.3 134.8" enable-background="new 0 0 398.3 134.8" xml:space="preserve">
<g>
	<g>
		<g>
			<path fill="#FFFFFF" d="M44.3,120.3"/>
		</g>
		<g>
			<path fill="#FFFFFF" d="M27.4,99.9"/>
		</g>
		<g>
			<path fill="#FFFFFF" d="M0,0v134.7h110.5V0H0z M108.9,1.6v131.4H1.6V1.6H108.9z M1.6,133.1v1.6h107.3v-1.6H1.6z"/>
		</g>
	</g>
	<g>
		<g>
			<g>
				<path fill="#FFFFFF" d="M81.6,19.8L76.1,20c0,0,8.3-2.6,9.2-2.6c0.8,0,2.7,2.2,2.7,2.2h-2L81.6,19.8z"/>
			</g>
			<g>
				<path fill="#FFFFFF" d="M75.2,20.1l0.9-0.3c0.3-0.1,8.3-2.6,9.2-2.6c0.9,0,2.6,2.1,2.8,2.3l0.2,0.2h-2.3l-4.3,0.1L75.2,20.1z
					 M85.2,17.6c-0.6,0-5.3,1.4-8.3,2.3l4.6-0.2l4.3-0.1h1.8C87,18.9,85.8,17.6,85.2,17.6z"/>
			</g>
		</g>
		<g>
			<path fill="#FFFFFF" d="M86.6,34.8c0,0,1.6-0.9,2-1s2.6,0.9,2.6,0.9L86.6,34.8z"/>
		</g>
		<g>
			<g>
				<path fill="#FFFFFF" d="M89.6,22.2c0,0,3.5-2.9,4.2-4.6c0.6-1.7-2.1-16.4-2.1-16.4s1.8,13.8,1.3,15.5c-0.5,1.7-1.7,3.3-1.7,3.3
					L89.6,22.2z"/>
			</g>
			<g>
				<path fill="#FFFFFF" d="M89.6,22.3C89.6,22.3,89.5,22.3,89.6,22.3c-0.1-0.1-0.1-0.1-0.1-0.2l1.7-2.1c0,0,1.2-1.6,1.6-3.2
					c0.5-1.6-1.3-15.3-1.3-15.4c0-0.1,0-0.1,0.1-0.1c0.1,0,0.1,0,0.1,0.1c0.1,0.6,2.7,14.7,2.1,16.4C93.2,19.4,89.8,22.2,89.6,22.3
					C89.7,22.3,89.6,22.3,89.6,22.3z M92.4,6c0.5,4.2,1.1,9.8,0.8,10.9c-0.5,1.7-1.6,3.3-1.7,3.3l-0.9,1.1c1.1-1,2.7-2.6,3.1-3.6
					C94,16.5,93.1,10.4,92.4,6z"/>
			</g>
		</g>
		<g>
			<g>
				<path fill="#FFFFFF" d="M89.5,36.6c-0.2,0.6-1.2,3.1-1.5,3.4s-3.3,1-3.4,1.5c-0.1,0.5,2.5,1.8,2.6,2.6c0.1,0.4-0.6,1.4-1.2,1.7
					s-2.2,1-2.5,1.9c-0.1,0.5-1,3.8-1.3,4.6s-1.1,2-2.1,2.3c-1,0.3-11-2.2-11-2.2s8,0.9,8.9,0.9c0.9,0,2.7-0.4,3.2-2.8
					c0.1-0.6,0.6-2.6,0.8-3.5c0.3-1.4,3.8-1.3,4.3-2.6c0.2-1.1-2.9-3-2.9-3.3c0-0.7,4.1-1.8,4.1-1.8l1-2.8L89.5,36.6z"/>
			</g>
			<g>
				<path fill="#FFFFFF" d="M79.8,54.8c-2,0-10.4-2.1-10.8-2.2c-0.1,0-0.1-0.1-0.1-0.2c0-0.1,0.1-0.1,0.2-0.1c0.1,0,8,0.9,8.9,0.9
					l0,0c0.4,0,2.5-0.1,3-2.7c0.1-0.4,0.3-1.3,0.5-2.1c0.1-0.5,0.3-1,0.3-1.4c0.2-0.8,1.3-1.1,2.3-1.5c0.9-0.3,1.8-0.6,2-1.1
					c0.1-0.6-1.2-1.6-2-2.3c-0.7-0.6-0.9-0.8-0.9-1c0-0.8,3-1.6,4.1-1.9l0.9-2.7c0-0.1,0.1-0.1,0.2-0.1l1,0c0.1,0,0.1,0,0.1,0.1
					c0,0,0,0.1,0,0.1c-0.1,0.3-1.2,3.1-1.5,3.5c-0.1,0.2-0.6,0.3-1.4,0.6c-0.6,0.2-1.8,0.6-1.9,0.8c0,0.1,0.6,0.6,1,0.9
					c0.7,0.5,1.5,1.1,1.6,1.6c0.1,0.5-0.6,1.5-1.3,1.9C86,46,85.8,46,85.7,46.1c-0.7,0.3-1.8,0.9-2,1.6c0,0.1-0.1,0.4-0.2,0.7
					c-0.3,1.2-0.9,3.3-1.1,3.9c-0.3,0.7-1.1,2.1-2.2,2.4C80.1,54.8,80,54.8,79.8,54.8z M71.5,52.9c2.7,0.7,7.1,1.6,8.3,1.6
					c0.2,0,0.2,0,0.3,0c1-0.3,1.8-1.5,2-2.3c0.2-0.6,0.8-2.7,1.1-3.9c0.1-0.3,0.2-0.6,0.2-0.7c0.2-0.9,1.5-1.5,2.2-1.8
					c0.1-0.1,0.2-0.1,0.3-0.2c0.6-0.3,1.1-1.2,1.1-1.5c0-0.4-0.8-0.9-1.4-1.4c-0.8-0.6-1.2-0.9-1.1-1.2c0.1-0.3,0.7-0.6,2.1-1
					c0.5-0.2,1.2-0.4,1.3-0.5c0.2-0.3,1-2.2,1.4-3.1l-0.7,0l-0.9,2.7c0,0.1-0.1,0.1-0.1,0.1c-1.9,0.5-3.9,1.3-3.9,1.7
					c0,0.1,0.5,0.4,0.8,0.7c1,0.8,2.2,1.8,2.1,2.6c-0.2,0.7-1.2,1-2.2,1.3c-1,0.3-1.9,0.6-2.1,1.2c-0.1,0.3-0.2,0.9-0.3,1.4
					c-0.2,0.8-0.4,1.7-0.5,2.1c-0.6,2.8-2.9,2.9-3.3,2.9l0,0C77.4,53.5,73.9,53.1,71.5,52.9z"/>
			</g>
		</g>
		<g>
			<g>
				<path fill="#FFFFFF" d="M38,46.3c0.3,0.9,9.8,17.9,9.7,17.7c0.3,0.4,0.6,1,2.2,0.2L62.5,53c0,0-6.5,4.6-7.7,5
					c-1.2,0.4-2.3-7.8-2.9-7.4C51.2,51,50,60,49,60.2C48.1,60.4,38,46.3,38,46.3z"/>
			</g>
			<g>
				<path fill="#FFFFFF" d="M48.6,64.8c-0.6,0-0.9-0.4-1-0.7l0,0c0,0,0,0,0,0l0,0c0,0,0,0,0,0c-0.3-0.4-1.1-1.9-4.7-8.5
					c-1.1-2-4.8-8.7-5-9.2c0-0.1,0-0.1,0.1-0.1c0.1,0,0.1,0,0.2,0c3.8,5.4,10.2,13.9,10.9,13.9c0.4-0.1,1.1-3,1.6-5.2
					c0.6-2.6,1-4.3,1.3-4.5c0,0,0.1,0,0.1,0c0.3,0,0.5,0.8,1.1,3c0.4,1.8,1.1,4.5,1.7,4.5c0,0,0,0,0,0c1.1-0.4,7.6-4.9,7.6-4.9
					c0.1,0,0.1,0,0.2,0c0,0,0,0.1,0,0.2L50,64.3c0,0,0,0,0,0C49.5,64.6,49,64.8,48.6,64.8z M47.8,63.9
					C47.8,63.9,47.8,63.9,47.8,63.9c0.2,0.3,0.4,0.6,0.8,0.6c0.3,0,0.7-0.1,1.2-0.4L61,54.2c-2,1.4-5.3,3.6-6.1,3.8c0,0-0.1,0-0.1,0
					c-0.7,0-1.2-1.8-1.9-4.7c-0.3-1.2-0.7-2.6-0.9-2.8c-0.3,0.3-0.8,2.4-1.2,4.4c-0.7,3.3-1.2,5.2-1.7,5.4c0,0,0,0,0,0
					c-0.2,0-0.7,0-6-7c-1.6-2.2-3.2-4.4-4.2-5.7C41.1,51.8,47.6,63.6,47.8,63.9z"/>
			</g>
		</g>
		<g>
			<g>
				<path fill="#FFFFFF" d="M13.2,32.6c-8.1,1.9-11.1,8.2-11.1,8.2s12.9-4.9,19.7-3.4c6.8,1.5,11.7,8.7,11.5,10.9
					c-0.2,2.3-14.5,1.1-14.4,1.8s15.7,1.5,17.6,2.9c2.5,1.3,4.5,4.5,4,7c-0.5,2.5-18.8,1.7-18.7,2.4c0.1,0.7,21.1,1.5,21.9,4.2
					c0.9,2.6-21.5,2.6-15.2,3.4c6,0.7,18.6,0.4,21.1,3c2.1,2.6,5.8,6.4,2.4,7.2c-3.4,0.8-15.2,4.6-14.7,4.5
					c0.5-0.2,18.1-3.7,18.1-3.7s-22.2-41.8-26-45.4c-2.8-2.7-4-2.8-6.4-3.5C20.2,31.4,19,31.2,13.2,32.6z"/>
			</g>
			<g>
				<path fill="#FFFFFF" d="M37.3,84.7C37.2,84.7,37.2,84.7,37.3,84.7c-0.1-0.1-0.1-0.1,0-0.2l0,0c0,0,0,0,0,0l0.4-0.1
					c7.4-2.4,12.5-3.9,14.3-4.4c0.7-0.2,1.1-0.5,1.2-0.9c0.4-1.3-1.5-3.5-3-5.3c-0.2-0.3-0.5-0.6-0.7-0.8c-1.8-1.8-8.7-2.2-14.7-2.6
					c-2.4-0.1-4.6-0.3-6.3-0.5c-1.1-0.1-1.2-0.2-1.2-0.3c0-0.2,0.6-0.3,4.2-0.6c4.5-0.4,11.2-0.9,12-2.1c0.1-0.1,0.1-0.2,0.1-0.3
					c-0.5-1.7-9.9-2.6-16.1-3.3c-4.6-0.5-5.7-0.6-5.8-0.9c0,0,0-0.1,0-0.1c0.2-0.2,1.7-0.3,5-0.4c5.3-0.2,13.4-0.4,13.7-2
					c0.5-2.4-1.3-5.6-4-6.9c-1.1-0.8-6.8-1.4-11.3-1.9c-4.6-0.5-6.2-0.7-6.3-1c0,0,0-0.1,0-0.1c0.2-0.2,1.4-0.2,3.9-0.2
					c4.1,0,10.3,0,10.4-1.5c0.1-1-1-3.3-3.1-5.6c-1.4-1.5-4.4-4.3-8.3-5.2c-0.9-0.2-1.9-0.3-3-0.3c-6.9,0-16.5,3.6-16.6,3.7
					c0,0-0.1,0-0.1,0c0,0,0-0.1,0-0.1c0-0.1,3.2-6.4,11.2-8.3c3.1-0.7,4.9-1,6.3-1c1.2,0,2.2,0.2,3.4,0.5l0.4,0.1
					c2.2,0.6,3.4,0.9,6,3.4c3.8,3.5,25.8,45,26,45.4c0,0,0,0,0,0.1c0,0,0,0-0.1,0C55.2,81.1,38.2,84.5,37.3,84.7
					C37.3,84.7,37.3,84.7,37.3,84.7z M27.5,69.7c0.1,0,0.4,0.1,1,0.2c1.7,0.2,3.9,0.3,6.3,0.5c6.1,0.3,13,0.7,14.8,2.6
					c0.2,0.3,0.5,0.6,0.7,0.9c1.6,1.9,3.5,4.1,3,5.5c-0.2,0.5-0.6,0.8-1.4,1c-1.8,0.4-6.4,1.8-13.1,4c4.2-0.9,15-3,16.3-3.3
					C54,78.7,32.9,39.1,29.3,35.7c-2.6-2.5-3.8-2.8-6-3.4l-0.4-0.1c-1.2-0.3-2.1-0.5-3.4-0.5c-1.4,0-3.2,0.3-6.3,1
					c-7.2,1.7-10.4,7-11,8c1.4-0.5,10.1-3.6,16.4-3.6c1.2,0,2.2,0.1,3.1,0.3c6.8,1.5,11.7,8.6,11.6,11c-0.1,1.6-6.2,1.6-10.6,1.6
					c-1.7,0-3.5,0-3.8,0.1c0.3,0.2,3.2,0.6,6.1,0.9c4.6,0.5,10.3,1.1,11.4,1.9c2.7,1.3,4.5,4.7,4,7.1c-0.4,1.7-8.2,1.9-13.9,2.1
					c-2.3,0.1-4.5,0.1-4.8,0.3c0.3,0.2,2.9,0.5,5.6,0.7c6.6,0.7,15.7,1.6,16.3,3.4c0.1,0.2,0,0.3-0.1,0.5c-0.9,1.3-7.4,1.8-12.1,2.2
					C29.6,69.4,27.9,69.5,27.5,69.7z"/>
			</g>
		</g>
		<g>
			<g>
				<path fill="#FFFFFF" d="M89.7,23.2c1.1,4.1,3.4,11.4,3,11.8S86,35.5,86,35.5s1.1-2.7,2.1-2.3c2.9,1,3.3,1.1,3.7,0.5
					C92.2,33.1,89.7,23.2,89.7,23.2z"/>
			</g>
			<g>
				<path fill="#FFFFFF" d="M86,35.6C86,35.6,86,35.5,86,35.6C86,35.5,86,35.5,86,35.4c0-0.1,1-2.4,2-2.4c0.1,0,0.1,0,0.2,0
					c1.7,0.6,2.5,0.9,3,0.9l0,0c0.3,0,0.4-0.1,0.6-0.3c0.3-0.4-1.1-6.4-2.1-10.4c0,0,0-0.1,0.1-0.1c0,0,0.1,0,0.1,0.1
					c0.3,1.2,0.8,2.8,1.2,4.3c1.4,5,2.1,7.3,1.8,7.6C92.4,35.4,86.7,35.5,86,35.6C86,35.6,86,35.6,86,35.6z M87.9,33.2
					c-0.7,0-1.5,1.5-1.8,2.2c2.5-0.1,6.3-0.2,6.5-0.5c0.2-0.3-0.9-4.2-1.9-7.4c0-0.1-0.1-0.3-0.1-0.4c0.7,2.8,1.4,6.2,1.1,6.6
					c-0.2,0.3-0.3,0.4-0.7,0.4l0,0c-0.5,0-1.3-0.3-3-0.9C88,33.2,88,33.2,87.9,33.2z"/>
			</g>
		</g>
		<g>
			<g>
				<path fill="#FFFFFF" d="M20.8,30.5c0,0,5.9,0.7,8.6,3c1.8,1.6,5.2,7,5.2,7s-3.4-10.3-0.8-13.1c2-2.1,6.2-4.6,6.8-4.8
					s2,0.8,2.2-0.3c0,0,1.8-6.7,0.5-5.5c-1.3,1.2-9.1,11-13.4,12C27.4,29.5,20.8,30.5,20.8,30.5z"/>
			</g>
			<g>
				<path fill="#FFFFFF" d="M34.6,40.7c-0.1,0-0.1,0-0.1-0.1c0-0.1-3.4-5.4-5.2-7c-2.6-2.3-8.4-3-8.5-3c-0.1,0-0.1-0.1-0.1-0.2
					c0-0.1,0.1-0.1,0.1-0.2c0.1,0,6.5-1.1,9.1-1.7c3.4-0.8,9.1-7.3,11.9-10.4c0.7-0.8,1.2-1.3,1.4-1.6c0.2-0.2,0.5-0.2,0.6-0.1
					c0.5,0.6-0.6,4.9-0.8,5.7c-0.1,0.4-0.4,0.7-0.8,0.7c-0.2,0-0.5-0.1-0.8-0.1c-0.3-0.1-0.6-0.1-0.8-0.1c-0.6,0.2-4.7,2.6-6.7,4.8
					c-2.5,2.7,0.8,12.9,0.8,13C34.8,40.6,34.8,40.7,34.6,40.7C34.7,40.7,34.7,40.7,34.6,40.7z M21.9,30.5c1.8,0.3,5.6,1.1,7.7,2.9
					c1.4,1.2,3.5,4.4,4.6,6.1c-0.8-2.8-2.6-9.8-0.4-12.1c1.9-2.1,6.2-4.6,6.9-4.8c0.2-0.1,0.6,0,1,0.1c0.2,0.1,0.5,0.1,0.7,0.1
					c0.3,0,0.4-0.1,0.5-0.4c0.6-2.4,1.1-5.2,0.9-5.5c0,0,0,0-0.1,0.1c-0.2,0.2-0.7,0.8-1.4,1.5c-2.8,3.1-8.6,9.6-12,10.5
					C28,29.5,23.8,30.2,21.9,30.5z"/>
			</g>
		</g>
		<g>
			<g>
				<path fill="#FFFFFF" d="M79.7,20.7l5.2-0.1c0,0-0.7,1.8-2.2,1.9C81.2,22.6,79.7,20.7,79.7,20.7z"/>
			</g>
			<g>
				<path fill="#FFFFFF" d="M82.6,22.7c-1.5,0-2.9-1.7-3-1.8l-0.2-0.3l5.8-0.1l-0.1,0.2c0,0.1-0.8,1.9-2.4,2
					C82.7,22.7,82.7,22.7,82.6,22.7z M80.1,20.9c0.5,0.5,1.6,1.5,2.6,1.4c1.1-0.1,1.7-1.1,2-1.5L80.1,20.9z"/>
			</g>
		</g>
		<g>
			<g>
				<path fill="#FFFFFF" d="M47.2,25.5c0.4,0.9,1.4,1.7,2.4,1.4c-0.8,0.5-1.9,0.1-2.5-0.6c-0.6-0.8-0.7-1.8-0.8-2.7
					c-0.1-1-0.2-2-0.1-3c0.2-2.2,1-5,2.6-6.6c0.4-0.4,0.9-0.6,1.4-0.6c0.4,0,0.8,0.2,1.1,0.4c0.4,0.2,0.8,0.5,1,0.9
					c0.3,0.4,0.4,0.9,0.2,1.3c-0.5-0.9-1.7-1.3-2.7-1c-1.6,0.5-2.1,2-2.4,3.4C46.8,20.4,46.3,23.5,47.2,25.5z"/>
			</g>
			<g>
				<path fill="#FFFFFF" d="M48.8,27.2c-0.7,0-1.4-0.4-1.8-0.9c-0.6-0.8-0.7-1.8-0.9-2.8c-0.1-0.9-0.2-2-0.1-3
					c0.2-2.1,0.9-5,2.6-6.7c0.4-0.4,1-0.7,1.5-0.6c0.4,0,0.9,0.3,1.2,0.4c0.5,0.3,0.8,0.6,1,1c0.3,0.5,0.4,1,0.2,1.4
					c0,0-0.1,0.1-0.1,0.1c-0.1,0-0.1,0-0.1-0.1C52,15.5,51.2,15,50.4,15c-0.2,0-0.4,0-0.6,0.1c-1.5,0.5-2,1.9-2.4,3.3
					c-0.4,1.3-1.1,4.7-0.1,7c0.3,0.8,1.1,1.4,1.9,1.4c0,0,0,0,0,0c0.1,0,0.3,0,0.4-0.1c0.1,0,0.1,0,0.1,0.1c0,0.1,0,0.1,0,0.2
					C49.4,27.2,49.1,27.2,48.8,27.2z M50,13.5c-0.4,0-0.9,0.2-1.2,0.6c-1.6,1.6-2.4,4.4-2.5,6.5c-0.1,1,0,2.1,0.1,3
					c0.1,1,0.3,1.9,0.8,2.6c0.4,0.5,1,0.8,1.6,0.8c-0.7-0.2-1.4-0.7-1.7-1.5c-1-2.3-0.2-5.8,0.1-7.1c0.4-1.4,0.9-3,2.5-3.5
					c0.2-0.1,0.5-0.1,0.7-0.1c0.8,0,1.5,0.4,2,0.9c0-0.3-0.1-0.6-0.3-0.9c-0.2-0.3-0.5-0.6-1-0.9C50.9,13.7,50.5,13.5,50,13.5
					C50.1,13.5,50,13.5,50,13.5z"/>
			</g>
		</g>
		<g>
			<g>
				<path fill="#FFFFFF" d="M62.3,49.8c-0.6-0.3-4.5-2.3-6-3c-1.5-0.6-3.5-1.9-5.1-3.5c-1.7-1.6-1.3-14.7-1.3-14.7
					s0.9,11.7,2.6,13.5C54.3,44,62.3,49.8,62.3,49.8z"/>
			</g>
			<g>
				<path fill="#FFFFFF" d="M62.3,49.9C62.3,49.9,62.3,49.9,62.3,49.9c-0.3-0.1-1.1-0.5-2-1c-1.4-0.7-3.1-1.6-4-2
					c-1.6-0.7-3.6-2-5.1-3.6c-1.7-1.6-1.3-14.2-1.3-14.7c0,0,0-0.1,0.1-0.1c0,0,0.1,0,0.1,0.1c0,0.1,0.9,11.6,2.6,13.4
					c1.7,1.8,9.4,7.4,9.7,7.7C62.3,49.8,62.4,49.8,62.3,49.9C62.4,49.9,62.3,49.9,62.3,49.9C62.3,49.9,62.3,49.9,62.3,49.9z
					 M49.9,30.2c0,3.5,0,11.8,1.3,13.1c1.6,1.5,3.5,2.9,5.1,3.5c0.9,0.4,2.6,1.3,4,2c0.5,0.2,0.9,0.4,1.2,0.6
					c-2-1.5-7.6-5.7-9.1-7.2C51.1,40.8,50.2,33.4,49.9,30.2z"/>
			</g>
		</g>
		<g>
			<g>
				<path fill="#FFFFFF" d="M38.7,8.4c-0.6,3.6-2.2,9-2.7,10.8c-0.4,1.4-1.3,3.9-1.3,4c2.9-3.9,6.1-7.6,9.5-11.1
					c-1.5,1.5-3.2,2.8-4.9,3.9c0.2-0.7,0.6-1.3,1-1.9c-0.3,0.3-0.7,0.6-1.1,0.7c0.3-1.2,0.6-2.4,1-3.6c-0.3,0.3-0.6,0.6-0.9,0.9
					c0.1-3.2,1.2-10,1-10.1c0,0-0.2,0.5-0.4,1.1L38.7,8.4z"/>
			</g>
			<g>
				<path fill="#FFFFFF" d="M34.7,23.2C34.7,23.2,34.7,23.2,34.7,23.2C34.6,23.2,34.6,23.2,34.7,23.2c-0.1-0.1,0-0.3,0.4-1.7
					c0.3-0.8,0.6-1.8,0.8-2.5c0.5-1.6,2-7.1,2.7-10.7l1.2-5.3C39.9,2.5,40.1,2,40.1,2c0,0,0,0,0.1,0c0,0,0,0,0.1,0
					c0.1,0.1,0.1,0.3-0.3,3.1c-0.3,2.2-0.6,5.1-0.7,6.9l0.7-0.7c0,0,0.1,0,0.1,0c0,0,0,0.1,0,0.1c-0.3,1.1-0.6,2.3-0.9,3.4
					c0.4-0.1,0.7-0.4,1-0.7c0,0,0.1,0,0.1,0c0,0,0,0.1,0,0.1c-0.4,0.5-0.7,1.1-0.9,1.7c1.7-1.1,3.3-2.4,4.7-3.8c0,0,0.1,0,0.1,0
					c0,0,0,0.1,0,0.1C40.8,15.6,37.6,19.3,34.7,23.2C34.7,23.2,34.7,23.2,34.7,23.2z M40.1,2.5c-0.1,0.2-0.2,0.4-0.2,0.7l-1.2,5.2
					c-0.6,3.6-2.2,9.1-2.7,10.8c-0.2,0.7-0.5,1.6-0.8,2.5c-0.1,0.4-0.3,0.8-0.4,1.1c2.3-3.1,4.9-6.2,7.6-9c-1,0.8-2.1,1.6-3.1,2.4
					c0,0-0.1,0-0.1,0c0,0,0-0.1,0-0.1c0.2-0.5,0.4-1,0.6-1.4c-0.2,0.1-0.4,0.3-0.7,0.3c0,0-0.1,0-0.1,0c0,0,0,0,0-0.1
					c0.3-1.1,0.5-2.2,0.9-3.3l-0.7,0.7c0,0-0.1,0-0.1,0c0,0,0,0,0-0.1c0-1.8,0.4-4.9,0.7-7.2C40,4,40.1,3,40.1,2.5z"/>
			</g>
		</g>
		<g>
			<g>
				<path fill="#FFFFFF" d="M55.8,83.2c0,0,5.6,2.3,6.7,5.8c0.5,2.1,2.6,25.6,2.2,24.6c-0.3-0.7-1.1-10.4-3.5-18.2
					c-2.4-7.8-22.4-8.6-22.4-8.6L55.8,83.2z"/>
			</g>
			<g>
				<path fill="#FFFFFF" d="M64.8,113.7C64.7,113.7,64.7,113.7,64.8,113.7c-0.2-0.3-0.3-1-0.4-2.3c-0.5-3.3-1.4-10.2-3.2-16
					c-2.4-7.7-22.1-8.6-22.3-8.6l-0.6,0l17.6-3.7l0,0c0,0,1.4,0.6,3,1.6c1.4,0.9,3.2,2.4,3.8,4.2c0.2,1,0.9,7.3,1.4,13
					C64.2,104.6,65,113.4,64.8,113.7L64.8,113.7L64.8,113.7z M39.5,86.7c1.5,0.1,5.5,0.4,9.7,1.3c4.9,1.1,10.9,3.2,12.2,7.3
					c1.8,5.8,2.7,12.7,3.2,16.1c0.1,0.6,0.2,1.2,0.2,1.5c-0.2-3.7-1.9-22.3-2.3-24c-1.1-3.2-6.3-5.5-6.6-5.7L39.5,86.7z"/>
			</g>
		</g>
		<g>
			<g>
				<path fill="#FFFFFF" d="M91,55.1c-0.6,1-24,31.1-24.6,33.3C65.2,92,67,113.6,67,113.6S70.2,92,71,89.3S91,55.1,91,55.1z"/>
			</g>
			<g>
				<path fill="#FFFFFF" d="M67,113.7C67,113.7,67,113.7,67,113.7C67,113.7,66.9,113.6,67,113.7c-0.2-1-1.9-21.7-0.7-25.4
					c0.5-1.6,14.3-19.7,21-28.4c2-2.7,3.5-4.6,3.7-4.9c0,0,0.1,0,0.1,0c0,0,0,0.1,0,0.1c-0.2,0.3-19.2,31.5-20,34.2
					C70.2,92,67.1,113.4,67,113.7C67.1,113.6,67,113.7,67,113.7z M90.1,56.5c-0.6,0.8-1.6,2.1-2.7,3.5c-6.6,8.7-20.4,26.8-20.9,28.4
					c-1,3.3,0.3,20.8,0.6,24.5c0.5-3.7,3.1-21.2,3.8-23.6C71.6,86.9,86.2,62.7,90.1,56.5z"/>
			</g>
		</g>
		<g>
			<g>
				<path fill="#FFFFFF" d="M91.8,1.2c0,0-16.7-0.5-16.7-0.3L91,2c0,0-3.5,1-3.5,1.2s3.7,0.3,3.7,0.3S89,4.3,88.9,4.5l3.5,1.2
					L91.8,1.2z"/>
			</g>
			<g>
				<path fill="#FFFFFF" d="M92.5,5.8C92.5,5.8,92.4,5.8,92.5,5.8l-3.5-1.2c0,0-0.1,0-0.1-0.1c0-0.1,0.7-0.5,1.9-1
					c-3.4-0.2-3.4-0.3-3.4-0.4c0-0.1,0-0.2,3.1-1.1L75.1,1c0,0-0.1,0-0.1-0.1c0-0.1,0-0.2,1.8-0.2c4.2,0,14.9,0.3,15,0.4
					c0,0,0.1,0,0.1,0.1L92.5,5.8C92.5,5.7,92.5,5.8,92.5,5.8C92.5,5.8,92.5,5.8,92.5,5.8z M89.1,4.5l3.3,1.1l-0.7-4.3
					c-0.9,0-10.9-0.4-14.9-0.4c-0.1,0-0.3,0-0.4,0l14.6,1c0,0,0.1,0,0.1,0.1c0,0,0,0.1-0.1,0.1c-1.1,0.3-2.9,0.9-3.4,1.1
					c0.5,0.1,2.4,0.2,3.6,0.3c0,0,0.1,0,0.1,0.1c0,0,0,0.1,0,0.1C90.3,3.9,89.4,4.3,89.1,4.5z"/>
			</g>
		</g>
		<g>
			<g>
				<path fill="#FFFFFF" d="M102.3,58c-1,2.7-1.7,5.4-2.6,8.1c-2.9,8-5.5,16.3-8.5,24.3c-3.3,9-6.7,18.1-10.1,27.1
					c-1,2.6-1.3,3.9-2.2,6.5c-0.4,1.1-1,2.8-1.8,4.4c-0.6,1.2-1.6,2.5-2.5,3.5c-1.2,1.3-2.7,2.2-4.4,2.6c-1.5,0.3-3.4-0.7-4.8-1.4
					c-3.1-1.5-5.9-3.8-8-6.6c-0.1-0.2-0.3-0.4-0.4-0.6c2.3,2.1,5.3,3.9,8.4,3.5c1.7-0.2,3.2-1.1,4.6-2.1c5.6-4.2,7.5-10.5,10.1-16.7
					c4.8-11.4,9.4-23,14.4-34.3C97.1,70,99.5,64,102.3,58z"/>
			</g>
			<g>
				<path fill="#FFFFFF" d="M69.5,134.6c-1.3,0-2.7-0.7-3.9-1.3c-0.1-0.1-0.2-0.1-0.4-0.2c-3.2-1.6-6-3.9-8-6.7
					c-0.1-0.2-0.3-0.4-0.4-0.6c0,0,0-0.1,0-0.1c0,0,0.1,0,0.1,0c2.6,2.3,5.1,3.5,7.5,3.5c0,0,0,0,0,0c0.3,0,0.6,0,0.9-0.1
					c1.4-0.2,2.9-0.9,4.6-2.1c4.8-3.6,6.8-8.7,9-14c0.4-0.9,0.7-1.8,1.1-2.7c1.4-3.4,2.8-6.8,4.2-10.1c3.3-8,6.7-16.2,10.2-24.2
					c1.2-2.8,2.4-5.6,3.6-8.3c1.4-3.2,2.8-6.6,4.3-9.9c0,0,0.1-0.1,0.1,0c0,0,0.1,0.1,0,0.1c-0.5,1.3-0.9,2.7-1.3,4
					c-0.4,1.3-0.8,2.7-1.3,4.1c-1.4,3.9-2.8,8-4.1,11.9c-1.4,4.1-2.8,8.3-4.3,12.4c-3.2,8.6-6.6,17.8-10.1,27.1
					c-0.5,1.4-0.8,2.4-1.2,3.5c-0.3,0.9-0.6,1.8-1,3.1c-0.1,0.2-0.1,0.3-0.2,0.5c-0.4,1.1-0.9,2.5-1.6,3.9c-0.6,1.3-1.7,2.6-2.6,3.5
					c-1.2,1.3-2.7,2.2-4.5,2.6C70,134.5,69.8,134.6,69.5,134.6z M57.4,126.3C57.4,126.3,57.4,126.3,57.4,126.3
					c2.1,2.8,4.9,5.1,8,6.6c0.1,0.1,0.2,0.1,0.4,0.2c1.1,0.6,2.5,1.3,3.8,1.3c0.2,0,0.4,0,0.6-0.1c1.7-0.4,3.2-1.2,4.4-2.6
					c0.8-0.9,1.9-2.2,2.5-3.5c0.7-1.4,1.2-2.8,1.6-3.9c0.1-0.2,0.1-0.4,0.2-0.5c0.4-1.2,0.7-2.1,1-3c0.3-1.1,0.7-2.1,1.2-3.5
					c3.5-9.3,6.9-18.5,10-27.1c1.5-4.1,2.9-8.3,4.3-12.4c1.3-3.9,2.7-8,4.1-11.9c0.5-1.4,0.9-2.7,1.3-4c0.2-0.8,0.5-1.5,0.7-2.3
					c-1.2,2.8-2.4,5.5-3.5,8.2c-1.1,2.7-2.3,5.5-3.6,8.3c-3.5,8-7,16.2-10.2,24.2c-1.4,3.3-2.8,6.7-4.2,10.1
					c-0.4,0.9-0.7,1.8-1.1,2.7c-2.1,5.4-4.2,10.4-9,14.1c-1.7,1.3-3.2,2-4.6,2.2c-0.3,0-0.6,0.1-0.9,0.1c0,0,0,0,0,0
					C62.2,129.4,59.8,128.4,57.4,126.3z"/>
			</g>
		</g>
		<g>
			<g>
				<path fill="#FFFFFF" d="M102.3,58c-1,2.7-1.7,5.4-2.6,8.1c-2.9,8-5.5,16.3-8.5,24.3c-3.3,9-6.7,18.1-10.1,27.1
					c-1,2.6-1.3,3.9-2.2,6.5c-0.4,1.1-1,2.8-1.8,4.4c-0.6,1.2-1.6,2.5-2.5,3.5c-1.2,1.3-2.7,2.2-4.4,2.6c-1.5,0.3-3.4-0.7-4.8-1.4
					c-3.1-1.5-5.9-3.8-8-6.6c-0.1-0.2-0.3-0.4-0.4-0.6c2.3,2.1,5.3,3.9,8.4,3.5c1.7-0.2,3.2-1.1,4.6-2.1c5.6-4.2,7.5-10.5,10.1-16.7
					c4.8-11.4,9.4-23,14.4-34.3C97.1,70,99.5,64,102.3,58z"/>
			</g>
			<g>
				<path fill="#FFFFFF" d="M69.5,134.6c-1.3,0-2.7-0.7-3.9-1.3c-0.1-0.1-0.2-0.1-0.4-0.2c-3.2-1.6-6-3.9-8-6.7
					c-0.1-0.2-0.3-0.4-0.4-0.6c0,0,0-0.1,0-0.1c0,0,0.1,0,0.1,0c2.6,2.3,5.1,3.5,7.5,3.5c0,0,0,0,0,0c0.3,0,0.6,0,0.9-0.1
					c1.4-0.2,2.9-0.9,4.6-2.1c4.8-3.6,6.8-8.7,9-14c0.4-0.9,0.7-1.8,1.1-2.7c1.4-3.4,2.8-6.8,4.2-10.1c3.3-8,6.7-16.2,10.2-24.2
					c1.2-2.8,2.4-5.6,3.6-8.3c1.4-3.2,2.8-6.6,4.3-9.9c0,0,0.1-0.1,0.1,0c0,0,0.1,0.1,0,0.1c-0.5,1.3-0.9,2.7-1.3,4
					c-0.4,1.3-0.8,2.7-1.3,4.1c-1.4,3.9-2.8,8-4.1,11.9c-1.4,4.1-2.8,8.3-4.3,12.4c-3.2,8.6-6.6,17.8-10.1,27.1
					c-0.5,1.4-0.8,2.4-1.2,3.5c-0.3,0.9-0.6,1.8-1,3.1c-0.1,0.2-0.1,0.3-0.2,0.5c-0.4,1.1-0.9,2.5-1.6,3.9c-0.6,1.3-1.7,2.6-2.6,3.5
					c-1.2,1.3-2.7,2.2-4.5,2.6C70,134.5,69.8,134.6,69.5,134.6z M57.4,126.3C57.4,126.3,57.4,126.3,57.4,126.3
					c2.1,2.8,4.9,5.1,8,6.6c0.1,0.1,0.2,0.1,0.4,0.2c1.1,0.6,2.5,1.3,3.8,1.3c0.2,0,0.4,0,0.6-0.1c1.7-0.4,3.2-1.2,4.4-2.6
					c0.8-0.9,1.9-2.2,2.5-3.5c0.7-1.4,1.2-2.8,1.6-3.9c0.1-0.2,0.1-0.4,0.2-0.5c0.4-1.2,0.7-2.1,1-3c0.3-1.1,0.7-2.1,1.2-3.5
					c3.5-9.3,6.9-18.5,10-27.1c1.5-4.1,2.9-8.3,4.3-12.4c1.3-3.9,2.7-8,4.1-11.9c0.5-1.4,0.9-2.7,1.3-4c0.2-0.8,0.5-1.5,0.7-2.3
					c-1.2,2.8-2.4,5.5-3.5,8.2c-1.1,2.7-2.3,5.5-3.6,8.3c-3.5,8-7,16.2-10.2,24.2c-1.4,3.3-2.8,6.7-4.2,10.1
					c-0.4,0.9-0.7,1.8-1.1,2.7c-2.1,5.4-4.2,10.4-9,14.1c-1.7,1.3-3.2,2-4.6,2.2c-0.3,0-0.6,0.1-0.9,0.1c0,0,0,0,0,0
					C62.2,129.4,59.8,128.4,57.4,126.3z"/>
			</g>
		</g>
		<g>
			<path fill="#FFFFFF" d="M26.8,100.6"/>
		</g>
		<g>
			<g>
				<path fill="#FFFFFF" d="M90.9,38.2c-0.1,0.3-0.6,1.4-0.7,1.7c-0.7,1.7-0.9,2.1-1.5,3.8c-0.4,1.3-1.2,3.2-0.9,4.7
					c0.4,2.1,2.9,4.5,2.9,4.5s-1.3-2-2-4.2c-0.2-0.6-0.1-1.5-0.1-1.9c0.1-0.5,0.2-1.2,0.4-1.7c0.3-1,1.1-3,1.5-4
					c0.8-2,1.3-3.1,2.8-4.7c-0.8,0-1.3,0.3-1.8,1C91.3,37.5,91,38,90.9,38.2z"/>
			</g>
			<g>
				<path fill="#FFFFFF" d="M90.6,53.2c-0.1,0-0.2,0-0.2-0.1c-0.1-0.1-2.5-2.5-3-4.6c-0.3-1.3,0.3-2.9,0.7-4.2
					c0.1-0.2,0.2-0.4,0.2-0.7c0.5-1.4,0.7-2,1.2-3.1l0.3-0.8c0.1-0.3,0.6-1.5,0.8-1.7c0.1-0.2,0.4-0.8,0.6-0.9
					c0.6-0.7,1.2-1.1,2.1-1.1c0.1,0,0.3,0.1,0.3,0.2c0.1,0.1,0,0.3-0.1,0.4c-1.6,1.6-2,2.6-2.8,4.6c-0.4,1-1.1,3-1.5,4
					c-0.2,0.5-0.3,1.2-0.4,1.6l0,0.1c0,0.4-0.1,1.2,0,1.7c0.7,2.1,2,4.1,2,4.1c0.1,0.1,0.1,0.3-0.1,0.4
					C90.8,53.2,90.7,53.2,90.6,53.2z M92.2,37c-0.2,0.1-0.4,0.3-0.6,0.5c-0.1,0.1-0.4,0.6-0.5,0.8c-0.1,0.3-0.6,1.4-0.7,1.7
					l-0.3,0.8c-0.5,1.1-0.7,1.6-1.1,3c-0.1,0.2-0.1,0.4-0.2,0.7c-0.4,1.2-0.9,2.7-0.7,3.8c0.1,0.6,0.4,1.2,0.7,1.7
					c-0.2-0.4-0.3-0.8-0.5-1.2c-0.2-0.6-0.1-1.5-0.1-2l0-0.1c0.1-0.5,0.2-1.2,0.4-1.8c0.3-1,1.1-3,1.5-4
					C90.8,39.4,91.2,38.3,92.2,37z"/>
			</g>
		</g>
		<g>
			<g>
				<path fill="#FFFFFF" d="M16.7,92.7L0.3,67.2c0,0,17.3,20,18.2,21.1c0.7,0.8,9.3-0.5,9.3-0.5L16.7,92.7z"/>
			</g>
			<g>
				<path fill="#FFFFFF" d="M16.7,92.7C16.7,92.7,16.7,92.7,16.7,92.7L0.2,67.2c0,0,1.4,2.1,0-0.1c0,0,0.1,0,0.1,0
					c0.3,0.3,17.3,20,18.2,21c0.1,0.1,0.4,0.2,1.5,0.2c2.6,0,7.7-0.8,7.8-0.8c0,0,0.1,0,0.1,0.1c0,0,0,0.1,0,0.1L16.7,92.7
					C16.8,92.7,16.8,92.7,16.7,92.7z M0.5,67.2l16.3,25.4l10.5-4.7c-1.4,0.2-5.1,0.7-7.2,0.7c-1.2,0-1.5-0.2-1.6-0.3
					C17.7,87.3,5.4,73.1,0.5,67.2z"/>
			</g>
		</g>
		<g>
			<g>
				<path fill="#FFFFFF" d="M107.6,26.4c0,0-6-1-7.3,0.9c-0.9,1.3-1.6,2.5-2.3,3.9c-1,2-2.4,4.2-2.5,6.6c0,0.2,0,0.4,0.1,0.5
					c0.1,0.3,0.5,0.7,0.8,0.7c-0.2,0.2-1.1,0.1-1.4-0.3c-1.2-1.4,0.1-4.7,0.8-6c0.8-1.5,1.3-2.6,2.4-4.2c0.7-1.1,1.1-1.7,1.3-1.9
					C102.2,23.4,107.6,26.4,107.6,26.4z"/>
			</g>
			<g>
				<path fill="#FFFFFF" d="M96,39.2c-0.4,0-0.9-0.2-1.1-0.4c-1.2-1.3,0-4.5,0.8-6.1l0.2-0.4C96.5,31,97,30,98,28.4
					c0.2-0.2,0.3-0.5,0.4-0.7c0.5-0.7,0.7-1.1,0.9-1.3c0.9-0.9,2-1.4,3.5-1.4c2.4,0,4.7,1.3,4.8,1.3c0,0,0,0,0,0c0,0,0,0,0,0
					c0,0-1.6-0.3-3.3-0.3c-2.1,0-3.5,0.4-4,1.1c-0.9,1.2-1.5,2.4-2.2,3.7L98,31.3c-0.2,0.3-0.3,0.6-0.5,1c-1,1.8-1.9,3.6-2,5.6
					c0,0.2,0,0.4,0.1,0.5c0.1,0.3,0.5,0.6,0.8,0.7c0,0,0,0,0,0c0,0,0,0,0,0C96.3,39.2,96.1,39.2,96,39.2z M102.8,25.2
					c-1.4,0-2.6,0.5-3.4,1.4c-0.2,0.2-0.4,0.6-0.9,1.3c-0.1,0.2-0.3,0.4-0.4,0.7c-1,1.5-1.5,2.6-2.2,3.9l-0.2,0.4
					c-0.8,1.6-2,4.7-0.8,6c0.2,0.2,0.7,0.4,1.1,0.4c0.1,0,0.2,0,0.2,0c-0.3-0.1-0.6-0.4-0.8-0.7c-0.1-0.2-0.1-0.4-0.1-0.6
					c0.1-2,1.1-3.8,2-5.6c0.2-0.3,0.3-0.6,0.5-1L98,31c0.7-1.3,1.3-2.5,2.2-3.7c0.6-0.8,1.9-1.2,4.1-1.2c1.3,0,2.6,0.2,3.1,0.2
					C106.7,26,104.8,25.2,102.8,25.2z"/>
			</g>
		</g>
		<g>
			<g>
				<path fill="#FFFFFF" d="M110.4,29.1c0,0-3.6-1.4-5.2,0.2c-0.3,0.3-0.6,0.7-0.9,1.1c-0.4,0.8-0.9,1.6-1.3,2.4
					c-0.9,1.7-1.7,3.2-2.5,4.9c-0.2,0.5-0.5,1.1-0.5,1.6c-0.1,0.8,0.2,1,0.9,1.1c-0.3,0.2-0.8,0.5-1.4,0.1C99.2,40.4,99,40,99,39.7
					c0-0.3,0-1,0.1-1.3c0.2-1,0.6-1.9,1-2.8c0.8-1.9,1.9-3.6,2.9-5.4c0.2-0.4,0.5-0.9,0.7-1.3C105.4,26.4,110.4,29.1,110.4,29.1z"/>
			</g>
			<g>
				<path fill="#FFFFFF" d="M100.1,40.8c-0.2,0-0.4-0.1-0.6-0.2C99.2,40.4,99,40,99,39.7c0-0.3,0-1,0.1-1.3c0.2-0.8,0.5-1.6,0.8-2.3
					c0.1-0.2,0.2-0.4,0.2-0.5c0.6-1.3,1.3-2.6,2-3.8c0.3-0.5,0.6-1.1,0.9-1.6l0,0c0.2-0.4,0.5-0.8,0.7-1.2c0.5-0.7,1.3-1.1,2.4-1.1
					c2.2,0,3.8,0.7,3.8,0.7c0,0,0.3,0.4,0.3,0.4c0,0,0-0.4,0-0.4c0,0-1.1,0-2.8,0c-1,0-1.8,0.3-2.3,0.7c-0.3,0.3-0.6,0.7-0.8,1.1
					c-0.2,0.4-0.4,0.7-0.6,1.1c-0.2,0.4-0.5,0.9-0.7,1.3c-0.2,0.4-0.4,0.8-0.6,1.2c-0.6,1.2-1.2,2.4-1.8,3.6
					c-0.2,0.5-0.5,1.1-0.5,1.6c-0.1,0.8,0.2,0.9,0.9,1.1c0,0,0,0,0,0c0,0,0,0,0,0C100.7,40.6,100.4,40.8,100.1,40.8z M106.2,27.9
					c-1.1,0-1.9,0.4-2.4,1.1c-0.3,0.4-0.5,0.8-0.7,1.2l0,0c-0.3,0.5-0.6,1.1-0.9,1.6c-0.7,1.2-1.4,2.5-2,3.8
					c-0.1,0.2-0.2,0.4-0.2,0.5c-0.3,0.7-0.6,1.4-0.8,2.2c-0.1,0.3-0.1,1-0.1,1.3c0,0.3,0.2,0.7,0.5,0.8c0.2,0.1,0.4,0.2,0.6,0.2
					c0.3,0,0.6-0.1,0.8-0.2c-0.7-0.1-0.9-0.3-0.8-1.1c0.1-0.5,0.3-1.1,0.5-1.6c0.6-1.3,1.2-2.4,1.8-3.6c0.2-0.4,0.4-0.8,0.6-1.2
					c0.2-0.4,0.5-0.9,0.7-1.3c0.2-0.4,0.4-0.7,0.6-1.1c0.2-0.4,0.5-0.8,0.9-1.2c0.5-0.5,1.3-0.8,2.4-0.8c1.1,0,2.2,0.3,2.9,0.5
					C109.5,28.6,107.7,27.9,106.2,27.9z"/>
			</g>
		</g>
		<g>
			<g>
				<path fill="#FFFFFF" d="M110.4,32.6c-0.3,0.4-0.1,0.9-0.3,1.4c-0.4,0.8-0.8,1.7-1.3,2.5c-0.9,1.7-1.6,3.2-2.5,4.9
					c0,0,0,0.1,0,0.1c-0.2,0.4-0.5,1-0.3,1.4c0.1,0.3,0.7,0.2,0.7,0.3c0,0.1-0.5,0.4-0.9,0.3c-0.3-0.1-0.6-0.3-0.7-0.5
					c-0.2-0.3-0.1-0.7-0.1-1.1c0.2-0.9,0.6-1.8,1-2.7c0.8-1.9,1.7-3.7,2.7-5.6c0.3-0.6,0.6-1.1,0.9-1.6"/>
			</g>
			<g>
				<path fill="#FFFFFF" d="M110.4,32.5c-0.3,0.3,0.1,0.7-0.1,1.1c-0.1,0.1-0.1,0.2-0.2,0.3c-0.3,0.5-0.5,1.1-0.8,1.6
					c-0.1,0.3-0.3,0.6-0.4,0.9c-0.2,0.3-0.3,0.6-0.5,0.9c-0.7,1.3-1.3,2.6-2.1,4l0,0.1c-0.1,0.3-0.5,0.9-0.3,1.3
					c0.1,0.2,0.3,0.2,0.5,0.2c0.1,0,0.2,0,0.2,0.1c0,0,0,0,0,0c0,0.1-0.5,0.4-0.8,0.4c-0.1,0-0.1,0-0.1,0c-0.3-0.1-0.6-0.3-0.8-0.6
					c-0.2-0.3-0.1-0.8-0.1-1.1c0.3-0.9,0.6-1.9,1-2.7c0.7-1.8,1.6-3.6,2.7-5.6l0-0.1c0.3-0.5,0.6-1.1,0.9-1.6
					c0.5-0.8-0.5-1.3,0.6-1.3 M110.2,30.6c-1,0-0.2,0.6-0.7,1.4c-0.3,0.5-0.6,1-0.9,1.6l0,0.1c-1.1,2-2,3.8-2.7,5.6
					c-0.3,0.8-0.7,1.7-1,2.7c-0.1,0.3-0.2,0.7,0,1c0.2,0.2,0.5,0.5,0.7,0.5c0,0,0.1,0,0.1,0c0.3,0,0.6-0.2,0.7-0.3c0,0-0.1,0-0.1,0
					c-0.2,0-0.5,0-0.6-0.3c-0.2-0.4,0.1-1,0.3-1.4l0-0.1c0.8-1.4,1.4-2.6,2.1-4c0.1-0.3,0.3-0.6,0.5-0.9c0.1-0.3,0.3-0.6,0.4-0.9
					c0.3-0.5,0.5-1.1,0.8-1.6c0.1-0.1,0.1-0.2,0.2-0.3c0.2-0.4-0.6-0.9-0.3-1.1"/>
			</g>
		</g>
	</g>
	<g>
		<path fill="#FFFFFF" d="M169.5,43.2v12c0,14.7-7.1,22.7-21.5,22.7h-6.8v34.5h-14.5v-92H148C162.4,20.4,169.5,28.4,169.5,43.2z
			 M141.2,33.6v31.1h6.8c4.6,0,7.1-2.1,7.1-8.7V42.2c0-6.6-2.5-8.7-7.1-8.7H141.2z"/>
		<path fill="#FFFFFF" d="M175.1,42.5c0-14.7,7.8-23.1,21.9-23.1c14.2,0,21.9,8.4,21.9,23.1v47.8c0,14.7-7.8,23.1-21.9,23.1
			c-14.2,0-21.9-8.4-21.9-23.1V42.5z M189.5,91.2c0,6.6,2.9,9.1,7.5,9.1c4.6,0,7.5-2.5,7.5-9.1V41.6c0-6.6-2.9-9.1-7.5-9.1
			c-4.6,0-7.5,2.5-7.5,9.1V91.2z"/>
		<path fill="#FFFFFF" d="M241.1,45.8v66.6h-13v-92h18.1l14.8,55v-55H274v92h-14.8L241.1,45.8z"/>
		<path fill="#FFFFFF" d="M284.4,20.4h22.9c14.5,0,21.5,8,21.5,22.7v46.5c0,14.7-7.1,22.7-21.5,22.7h-22.9V20.4z M298.8,33.6v65.7
			h8.1c4.6,0,7.4-2.4,7.4-8.9V42.5c0-6.6-2.8-8.9-7.4-8.9H298.8z"/>
		<path fill="#FFFFFF" d="M384.6,112.4H370l-2.5-16.7h-17.7l-2.5,16.7H334l14.7-92h21.2L384.6,112.4z M351.6,83.2h13.9l-7-46.5
			L351.6,83.2z"/>
	</g>
	<g>
		<path fill="#FFFFFF" d="M398.3,134.8H109V0h289.3V134.8z M110.6,133.1h286V1.7h-286V133.1z"/>
	</g>
</g>
</svg>
